<svg width="90" height="80" viewBox="0 0 90 80" fill="none" xmlns="http://www.w3.org/2000/svg">
<g id="boat">
<path id="boat_2" d="M40.5755 45.2021C45.0398 45.8728 52.9971 46.0409 57.3174 46.764L58.334 45.8963H59.7741L60.7059 45.2021L65.8734 45.4624V42.6857H63.2473L60.3671 40.5165C60.1694 40.3718 59.6894 40.0132 59.3505 39.7355C59.0117 39.4579 59.0964 38.9257 59.1811 38.6943C55.9338 34.4136 53.2423 28.6986 47.6602 23.9433C39.1042 16.6545 25.6349 9.10546 22.1616 10.407L2 54.7469L21.9075 10.0599C29.5316 9.01869 45.3729 21.8608 48.5073 23.9433C51.0148 25.6093 56.7809 34.1822 59.3505 38.2604C59.3788 38.1447 59.503 37.9481 59.7741 38.0869C60.1129 38.2604 61.2142 38.9546 61.3836 39.3017C61.5192 39.5793 63.1344 40.2272 63.925 40.5165L65.8734 38.2604V37.8266C65.5063 37.9712 64.7383 38.2257 64.6027 38.0869C64.4672 37.9481 64.3768 37.2192 64.3486 36.8721L64.0944 36.6986L64.3486 35.4838V34.5293C64.6592 33.7773 65.6193 32.5162 66.9747 33.488C68.3301 34.4599 68.1607 35.5127 67.9065 35.9176L69.5161 37.9133L69.4314 38.0869L67.7371 36.9589V37.8266C68.3866 38.6364 69.1772 40.3082 69.5161 41.2106C69.8549 42.113 69.9679 45.8095 69.6855 47.4581C70.6456 47.4003 73.0401 47.3193 74.9377 47.4581C76.8352 47.597 80.0769 47.0532 81.4606 46.764V45.4624C82.8442 44.9128 85.8995 43.9352 87.0516 44.4212C88.2037 44.9071 88.8306 46.1855 89 46.764C89 47.2557 88.7628 48.5341 87.814 49.7142C86.8652 50.8942 86.4021 54.313 86.2892 55.8749C80.9805 56.8872 68.94 58.9292 63.2473 58.9986C57.5546 59.0681 41.2785 56.4823 33.852 55.1807L20.0566 41.2106C24.0099 42.2519 35.3774 44.4212 40.5755 45.2021Z" fill="#333333" stroke="black" stroke-width="0.1"/>
<path id="shadow" d="M40.5755 61.3977C45.0398 61.2338 52.9971 61.1927 57.3174 61.016L58.334 61.2281H59.7741L60.7059 61.3977L65.8734 61.3341V62.0126H63.2473L60.3671 62.5427C60.1694 62.5781 59.6894 62.6657 59.3505 62.7335C59.0117 62.8014 59.0964 62.9315 59.1811 62.988C55.9338 64.0341 53.2423 65.4306 47.6602 66.5927C39.1042 68.3738 25.6349 70.2186 22.1616 69.9005L2 56.0302L21.9075 69.9854C29.5316 70.2398 45.3729 67.1016 48.5073 66.5927C51.0148 66.1856 56.7809 64.0906 59.3505 63.094C59.3788 63.1223 59.503 63.1704 59.7741 63.1364C60.1129 63.094 61.2142 62.9244 61.3836 62.8396C61.5192 62.7717 63.1344 62.6134 63.925 62.5427L65.8734 63.094V63.2C65.5063 63.1647 64.7383 63.1025 64.6027 63.1364C64.4672 63.1704 64.3768 63.3485 64.3486 63.4333L64.0944 63.4757L64.3486 63.7726V64.0058C64.6592 64.1896 65.6193 64.4977 66.9747 64.2602C68.3301 64.0228 68.1607 63.7655 67.9065 63.6665L69.5161 63.1788L69.4314 63.1364L67.7371 63.4121V63.2C68.3866 63.0021 69.1772 62.5936 69.5161 62.3731C69.8549 62.1526 69.9679 61.2493 69.6855 60.8464C70.6456 60.8605 73.0401 60.8803 74.9377 60.8464C76.8352 60.8125 80.0769 60.9453 81.4606 61.016V61.3341C82.8442 61.4684 85.8995 61.7073 87.0516 61.5885C88.2037 61.4698 88.8306 61.1574 89 61.016C89 60.8959 88.7628 60.5835 87.814 60.2951C86.8652 60.0067 86.3771 56.7189 86.2642 56.3372C80.9555 56.0899 68.94 58.0432 63.2473 58.0262C57.5546 58.0093 41.1623 55.7122 33.7358 56.0302L20.0566 62.3731C24.0099 62.1186 35.3774 61.5885 40.5755 61.3977Z" fill="#333333" fill-opacity="0.5"/>
<path id="Bishwas" d="M40.8252 55V47.8906H43.1494C43.9209 47.8906 44.5003 48.0501 44.8877 48.3691C45.2783 48.6882 45.4736 49.1602 45.4736 49.7852C45.4736 50.1172 45.3792 50.4118 45.1904 50.6689C45.0016 50.9229 44.7445 51.1198 44.4189 51.2598C44.8031 51.3672 45.1058 51.5723 45.3271 51.875C45.5518 52.1745 45.6641 52.5326 45.6641 52.9492C45.6641 53.5872 45.4574 54.0885 45.0439 54.4531C44.6305 54.8177 44.0462 55 43.291 55H40.8252ZM41.7627 51.6748V54.2334H43.3105C43.7467 54.2334 44.0902 54.1211 44.3408 53.8965C44.5947 53.6686 44.7217 53.3561 44.7217 52.959C44.7217 52.1029 44.2562 51.6748 43.3252 51.6748H41.7627ZM41.7627 50.9229H43.1787C43.5889 50.9229 43.916 50.8203 44.1602 50.6152C44.4076 50.4102 44.5312 50.1318 44.5312 49.7803C44.5312 49.3896 44.4173 49.1064 44.1895 48.9307C43.9616 48.7516 43.6149 48.6621 43.1494 48.6621H41.7627V50.9229ZM47.8955 55H46.9922V49.7168H47.8955V55ZM46.9189 48.3154C46.9189 48.1689 46.9629 48.0452 47.0508 47.9443C47.1419 47.8434 47.2754 47.793 47.4512 47.793C47.627 47.793 47.7604 47.8434 47.8516 47.9443C47.9427 48.0452 47.9883 48.1689 47.9883 48.3154C47.9883 48.4619 47.9427 48.584 47.8516 48.6816C47.7604 48.7793 47.627 48.8281 47.4512 48.8281C47.2754 48.8281 47.1419 48.7793 47.0508 48.6816C46.9629 48.584 46.9189 48.4619 46.9189 48.3154ZM52.4219 53.5986C52.4219 53.3545 52.3291 53.1657 52.1436 53.0322C51.9613 52.8955 51.6406 52.7783 51.1816 52.6807C50.7259 52.583 50.363 52.4658 50.0928 52.3291C49.8258 52.1924 49.6273 52.0296 49.4971 51.8408C49.3701 51.652 49.3066 51.4274 49.3066 51.167C49.3066 50.734 49.4889 50.3678 49.8535 50.0684C50.2214 49.7689 50.6901 49.6191 51.2598 49.6191C51.8587 49.6191 52.3438 49.7738 52.7148 50.083C53.0892 50.3923 53.2764 50.7878 53.2764 51.2695H52.3682C52.3682 51.0221 52.2624 50.8089 52.0508 50.6299C51.8424 50.4508 51.5788 50.3613 51.2598 50.3613C50.931 50.3613 50.6738 50.4329 50.4883 50.5762C50.3027 50.7194 50.21 50.9066 50.21 51.1377C50.21 51.3558 50.2962 51.5202 50.4688 51.6309C50.6413 51.7415 50.9521 51.8473 51.4014 51.9482C51.8538 52.0492 52.2201 52.1696 52.5 52.3096C52.7799 52.4495 52.9867 52.6188 53.1201 52.8174C53.2568 53.0127 53.3252 53.252 53.3252 53.5352C53.3252 54.0072 53.1364 54.3864 52.7588 54.6729C52.3812 54.9561 51.8913 55.0977 51.2891 55.0977C50.8659 55.0977 50.4915 55.0228 50.166 54.873C49.8405 54.7233 49.585 54.515 49.3994 54.248C49.2171 53.9779 49.126 53.6865 49.126 53.374H50.0293C50.0456 53.6768 50.166 53.9176 50.3906 54.0967C50.6185 54.2725 50.918 54.3604 51.2891 54.3604C51.6309 54.3604 51.9043 54.292 52.1094 54.1553C52.3177 54.0153 52.4219 53.8298 52.4219 53.5986ZM55.4053 50.3564C55.8057 49.8649 56.3265 49.6191 56.9678 49.6191C58.0843 49.6191 58.6475 50.249 58.6572 51.5088V55H57.7539V51.5039C57.7507 51.123 57.6628 50.8415 57.4902 50.6592C57.321 50.4769 57.0557 50.3857 56.6943 50.3857C56.4014 50.3857 56.1442 50.4639 55.9229 50.6201C55.7015 50.7764 55.529 50.9814 55.4053 51.2354V55H54.502V47.5H55.4053V50.3564ZM64.6875 53.7549L65.7031 49.7168H66.6064L65.0684 55H64.3359L63.0518 50.9961L61.8018 55H61.0693L59.5361 49.7168H60.4346L61.4746 53.6719L62.7051 49.7168H63.4326L64.6875 53.7549ZM70.791 55C70.7389 54.8958 70.6966 54.7103 70.6641 54.4434C70.2441 54.8796 69.7428 55.0977 69.1602 55.0977C68.6393 55.0977 68.2113 54.9512 67.876 54.6582C67.5439 54.362 67.3779 53.9876 67.3779 53.5352C67.3779 52.985 67.5863 52.5586 68.0029 52.2559C68.4229 51.9499 69.012 51.7969 69.7705 51.7969H70.6494V51.3818C70.6494 51.0661 70.555 50.8154 70.3662 50.6299C70.1774 50.4411 69.8991 50.3467 69.5312 50.3467C69.209 50.3467 68.9388 50.4281 68.7207 50.5908C68.5026 50.7536 68.3936 50.9505 68.3936 51.1816H67.4854C67.4854 50.918 67.5781 50.6641 67.7637 50.4199C67.9525 50.1725 68.2064 49.9772 68.5254 49.834C68.8477 49.6908 69.2008 49.6191 69.585 49.6191C70.1937 49.6191 70.6706 49.7721 71.0156 50.0781C71.3607 50.3809 71.5397 50.7992 71.5527 51.333V53.7646C71.5527 54.2497 71.6146 54.6354 71.7383 54.9219V55H70.791ZM69.292 54.3115C69.5752 54.3115 69.8438 54.2383 70.0977 54.0918C70.3516 53.9453 70.5355 53.7549 70.6494 53.5205V52.4365H69.9414C68.8346 52.4365 68.2812 52.7604 68.2812 53.4082C68.2812 53.6914 68.3757 53.9128 68.5645 54.0723C68.7533 54.2318 68.9958 54.3115 69.292 54.3115ZM76.0449 53.5986C76.0449 53.3545 75.9521 53.1657 75.7666 53.0322C75.5843 52.8955 75.2637 52.7783 74.8047 52.6807C74.349 52.583 73.986 52.4658 73.7158 52.3291C73.4489 52.1924 73.2503 52.0296 73.1201 51.8408C72.9932 51.652 72.9297 51.4274 72.9297 51.167C72.9297 50.734 73.112 50.3678 73.4766 50.0684C73.8444 49.7689 74.3132 49.6191 74.8828 49.6191C75.4818 49.6191 75.9668 49.7738 76.3379 50.083C76.7122 50.3923 76.8994 50.7878 76.8994 51.2695H75.9912C75.9912 51.0221 75.8854 50.8089 75.6738 50.6299C75.4655 50.4508 75.2018 50.3613 74.8828 50.3613C74.554 50.3613 74.2969 50.4329 74.1113 50.5762C73.9258 50.7194 73.833 50.9066 73.833 51.1377C73.833 51.3558 73.9193 51.5202 74.0918 51.6309C74.2643 51.7415 74.5752 51.8473 75.0244 51.9482C75.4769 52.0492 75.8431 52.1696 76.123 52.3096C76.403 52.4495 76.6097 52.6188 76.7432 52.8174C76.8799 53.0127 76.9482 53.252 76.9482 53.5352C76.9482 54.0072 76.7594 54.3864 76.3818 54.6729C76.0042 54.9561 75.5143 55.0977 74.9121 55.0977C74.4889 55.0977 74.1146 55.0228 73.7891 54.873C73.4635 54.7233 73.208 54.515 73.0225 54.248C72.8402 53.9779 72.749 53.6865 72.749 53.374H73.6523C73.6686 53.6768 73.7891 53.9176 74.0137 54.0967C74.2415 54.2725 74.541 54.3604 74.9121 54.3604C75.2539 54.3604 75.5273 54.292 75.7324 54.1553C75.9408 54.0153 76.0449 53.8298 76.0449 53.5986Z" fill="white"/>
</g>
</svg>
