

<svg width="1366" height="768" viewBox="0 0 1366 768" fill="none" xmlns="http://www.w3.org/2000/svg">
 <style type="text/css">
        #fan-1,
        #fan-2 {
  animation: rotate 8s infinite linear;
  transform-origin: center;
  transform-box: fill-box;
}

@keyframes rotate {
  0% {
    transform: rotate(0deg);
  }
  100% {
    transform: rotate(359deg);
  }
}
    </style>
<g id="windmill" clip-path="url(#clip0)">

<g id="windmill-1">
<g id="body-1">

<path id="Vector 1" d="M144.904 522.865C143.898 528.902 131.698 567.303 125.724 585.749C140.921 586.693 173.768 588.579 183.578 588.579C193.388 588.579 234.619 586.693 254.008 585.749C252.436 579.356 248.977 565.375 247.72 560.596C246.147 554.622 237.344 527.581 235.143 522.865C233.382 519.092 226.444 483.353 223.195 465.955C223.509 464.173 223.069 460.107 218.793 458.094C213.448 455.579 200.556 445.518 188.294 445.518C176.032 445.518 156.852 457.151 156.852 462.496C156.852 467.841 146.162 515.319 144.904 522.865Z" fill="#CBD3EF" stroke="#7A85A9"/>
<path id="Vector 49" d="M145.218 522.394C144.212 528.43 131.541 567.303 125.567 585.749C140.764 586.693 145.784 587.164 155.594 587.164C163.769 587.164 162.04 580.876 162.04 576.474C160.468 570.081 159.682 564.589 158.424 559.81C156.852 553.836 167.699 549.591 165.498 544.875C163.738 541.102 147.419 465.955 224.767 465.955C225.081 464.173 224.641 460.107 220.365 458.094C215.02 455.579 202.129 445.518 189.866 445.518C177.604 445.518 157.323 456.365 157.323 461.71C157.323 467.055 146.476 514.847 145.218 522.394Z" fill="#313339" fill-opacity="0.1"/>
<g id="window">
<g id="shadow">
<path id="Vector 44" d="M177.446 498.497C175.56 497.366 183.578 496.768 187.822 496.611C188.713 496.611 191.061 496.988 193.325 498.497C196.155 500.384 195.526 500.384 194.582 501.17C193.639 501.956 194.111 503.843 196.783 505.415C199.456 506.987 194.425 507.616 193.325 507.773C192.224 507.93 191.281 509.974 189.552 511.232C187.822 512.489 183.263 508.873 181.22 508.873C179.176 508.873 180.433 506.044 181.22 503.843C182.006 501.642 177.446 502.742 178.39 501.17C179.333 499.598 179.805 499.912 177.446 498.497Z" fill="#191C27" fill-opacity="0.24"/>
<path id="Vector 46" d="M183.263 474.601C181.377 473.47 183.389 474.287 187.633 474.13C188.524 474.13 189.332 473.878 191.595 475.388C194.425 477.274 191.753 478.217 190.809 479.003C189.866 479.789 190.463 479.789 193.136 481.362C195.808 482.934 192.515 483.558 191.595 482.934C189.741 481.676 190.967 481.676 189.237 482.934C187.508 484.191 186.565 482.934 184.521 482.934C182.477 482.934 180.244 483.562 181.031 481.362C181.817 479.161 181.691 479.161 182.634 477.588C183.578 476.016 185.621 476.016 183.263 474.601Z" fill="#191C27" fill-opacity="0.2"/>
<path id="Vector 45" d="M181.062 526.638C181.062 523.977 183.314 526.817 188.55 526.638C189.649 526.638 190.847 526.017 193.639 527.739C197.13 529.89 196.501 532.502 195.337 533.398C194.174 534.295 193.33 535.221 196.626 537.014C199.923 538.807 193.639 538.272 193.01 541.102C192.713 542.438 188.383 540.296 186.25 541.73C184.117 543.165 182.926 540.624 180.405 540.624C177.884 540.624 179.436 537.397 180.405 534.886C181.375 532.376 178.641 532.833 179.805 531.04C180.968 529.247 181.062 529.311 181.062 526.638Z" fill="#191C27" fill-opacity="0.2"/>
</g>
<path id="Vector 48" d="M171.315 584.492C175.088 586.756 181.062 584.701 183.578 584.492L193.639 571.6C191.019 567.303 184.458 559.149 179.176 560.91C172.573 563.111 175.717 567.513 175.403 571.6C175.088 575.688 166.599 581.662 171.315 584.492Z" fill="#A7AEC7"/>
<path id="Vector 2" d="M193.01 538.115H181.534V527.267C182.163 526.533 184.175 525.066 187.194 525.066C190.212 525.066 192.329 526.533 193.01 527.267V538.115Z" fill="#545C78" stroke="#45474E" stroke-width="0.5"/>
<path id="Vector 3" d="M191.438 528.682H183.578V537.171H191.438V528.682Z" fill="#898E9E" stroke="#4A4F60"/>
<path id="Vector 4" d="M186.879 537.014V528.839H187.508V537.014H186.879Z" fill="#45474E"/>
<path id="Vector 5" d="M183.601 532.612L191.438 532.612L191.443 533.241L183.601 533.304L183.601 532.612Z" fill="#45474E"/>
<path id="Vector 6" d="M179.176 525.223L181.22 527.739C181.639 526.9 183.358 525.223 186.879 525.223C190.401 525.223 192.539 526.586 193.168 527.267L194.268 524.594C192.958 523.756 189.552 522.079 186.407 522.079C183.263 522.079 180.276 524.175 179.176 525.223Z" fill="#333747" stroke="#45474E" stroke-width="0.5"/>
</g>
<g id="window_2">
<path id="Vector 2_2" d="M192.329 505.572H183.244V497.915C183.741 497.397 185.334 496.361 187.724 496.361C190.114 496.361 191.79 497.397 192.329 497.915V505.572Z" fill="#545C78" stroke="#45474E" stroke-width="0.5"/>
<path id="Vector 3_2" d="M191.084 498.914H184.862V504.906H191.084V498.914Z" fill="#898E9E" stroke="#4A4F60"/>
<path id="Vector 4_2" d="M187.475 504.795V499.025H187.973V504.795H187.475Z" fill="#45474E"/>
<path id="Vector 5_2" d="M184.88 501.688L191.084 501.688L191.088 502.132L184.88 502.177L184.88 501.688Z" fill="#45474E"/>
<path id="Vector 6_2" d="M181.377 496.472L182.995 498.248C183.327 497.656 184.687 496.472 187.475 496.472C190.263 496.472 191.956 497.434 192.454 497.915L193.325 496.028C192.288 495.437 189.591 494.253 187.102 494.253C184.613 494.253 182.248 495.732 181.377 496.472Z" fill="#333747" stroke="#45474E" stroke-width="0.5"/>
</g>
<g id="window_3">
<path id="Vector 2_3" d="M191.307 481.676H184.374V475.933C184.753 475.545 185.969 474.768 187.793 474.768C189.617 474.768 190.896 475.545 191.307 475.933V481.676Z" fill="#545C78" stroke="#45474E" stroke-width="0.5"/>
<path id="Vector 3_3" d="M190.357 476.682H185.608V481.177H190.357V476.682Z" fill="#898E9E" stroke="#4A4F60"/>
<path id="Vector 4_3" d="M187.603 481.093V476.765H187.983V481.093H187.603Z" fill="#45474E"/>
<path id="Vector 5_3" d="M185.622 478.763L190.357 478.763L190.36 479.096L185.622 479.129L185.622 478.763Z" fill="#45474E"/>
<path id="Vector 6_3" d="M182.949 474.851L184.184 476.183C184.437 475.739 185.475 474.851 187.603 474.851C189.73 474.851 191.022 475.572 191.402 475.933L192.067 474.518C191.275 474.074 189.218 473.187 187.318 473.187C185.418 473.187 183.614 474.296 182.949 474.851Z" fill="#333747" stroke="#45474E" stroke-width="0.5"/>
</g>
<g id="head">
<path id="Vector 7" d="M165.341 465.012C162.7 465.012 152.188 468.47 147.262 470.2V459.195L166.127 420.207L188.923 410.302L211.247 421.464L229.64 460.61L227.754 471.614L218.95 465.012H165.341Z" fill="#B3C3FB" stroke="#7A85A9"/>
<path id="Vector 8" d="M164.87 452.278L148.834 457.78L147.262 459.509L164.87 452.906L217.692 454.321L229.64 460.767L217.692 453.378L164.87 452.278Z" fill="#55628E"/>
</g>
<g id="head_2">
<path id="Vector 7_2" d="M165.498 464.697C162.857 464.697 152.345 468.156 147.419 469.885V458.88L166.285 419.892L189.08 409.988L182.32 415.648V422.879L176.66 436.714L168.486 445.518C160.311 450.863 168.14 464.697 165.498 464.697Z" fill="#3E4045" fill-opacity="0.1"/>
<path id="Vector 8_2" d="M165.027 451.963L148.991 457.466L147.419 459.195L165.027 452.592L217.85 454.007L229.798 460.453L217.85 453.064L165.027 451.963Z" fill="#55628E"/>
</g>
<g id="Group 1">
<path id="Vector 23" d="M162.04 539.394C160.028 539.519 161.149 536.669 161.254 535.621L162.04 534.206C164.084 533.577 164.146 536.092 165.027 536.092C166.127 536.092 164.555 539.236 162.04 539.394Z" fill="#A7AEC7"/>
<path id="Vector 36" d="M153.236 565.934C151.224 566.06 152.345 563.209 152.45 562.161L153.236 560.746C155.28 560.118 155.343 562.633 156.223 562.633C157.323 562.633 155.751 565.777 153.236 565.934Z" fill="#A7AEC7"/>
<path id="Vector 28" d="M147.9 550.028C145.888 550.153 145.123 547.617 145.228 546.569L146.014 545.154C148.057 544.525 149.369 545.154 150.249 545.154C151.349 545.154 150.416 549.87 147.9 550.028Z" fill="#A7AEC7"/>
<path id="Vector 37" d="M139.096 576.568C137.084 576.694 136.319 574.158 136.424 573.11L137.21 571.695C139.254 571.066 140.565 571.695 141.445 571.695C142.546 571.695 141.612 576.411 139.096 576.568Z" fill="#A7AEC7"/>
<path id="Vector 27" d="M161.411 528.074C159.399 528.2 158.957 524.979 159.062 523.931L159.848 522.516C161.892 521.887 165.656 522.516 167.071 524.773C167.655 525.705 163.926 527.917 161.411 528.074Z" fill="#A7AEC7"/>
<path id="Vector 38" d="M152.607 554.615C150.595 554.741 150.154 551.52 150.258 550.471L151.044 549.057C153.088 548.428 156.852 549.057 158.267 551.314C158.851 552.246 155.123 554.458 152.607 554.615Z" fill="#A7AEC7"/>
<path id="Vector 34" d="M157.018 504.122C155.006 504.248 154.241 501.712 154.346 500.664L155.132 499.249C157.176 498.62 157.239 501.135 158.119 501.135C159.219 501.135 159.534 503.965 157.018 504.122Z" fill="#A7AEC7"/>
<path id="Vector 35" d="M166.451 504.122C164.439 504.248 163.674 501.712 163.778 500.664L164.565 499.249C166.608 498.62 169.02 499.249 169.9 499.249C171.001 499.249 168.966 503.965 166.451 504.122Z" fill="#A7AEC7"/>
<path id="Vector 33" d="M170.853 512.297C168.841 512.423 168.076 509.887 168.18 508.838L168.966 507.424C171.01 506.795 171.073 509.31 171.953 509.31C173.054 509.31 173.368 512.14 170.853 512.297Z" fill="#A7AEC7"/>
<path id="Vector 32" d="M193.491 519.843C191.479 519.969 190.714 517.433 190.819 516.385L191.605 514.97C193.649 514.341 195.117 516.385 195.997 516.385C197.098 516.385 196.007 519.686 193.491 519.843Z" fill="#A7AEC7"/>
<path id="Vector 26" d="M154.503 533.992C152.491 534.118 150.773 532.053 150.878 531.005L152.617 529.119C154.66 528.49 154.723 531.005 155.604 531.005C156.704 531.005 157.018 533.835 154.503 533.992Z" fill="#A7AEC7"/>
<path id="Vector 39" d="M145.699 560.533C143.687 560.659 141.969 558.594 142.074 557.546L143.813 555.659C145.856 555.031 145.919 557.546 146.8 557.546C147.9 557.546 148.215 560.376 145.699 560.533Z" fill="#A7AEC7"/>
<path id="Vector 25" d="M158.591 547.512C156.578 547.638 155.332 546.573 155.437 545.525L156.704 542.639C158.748 542.01 158.811 544.525 159.691 544.525C160.791 544.525 161.106 547.355 158.591 547.512Z" fill="#A7AEC7"/>
<path id="Vector 40" d="M149.787 574.053C147.774 574.179 146.528 573.114 146.633 572.066L147.9 569.179C149.944 568.551 150.007 571.066 150.887 571.066C151.988 571.066 152.302 573.896 149.787 574.053Z" fill="#A0A4B0"/>
<path id="Vector 29" d="M158.591 559.46C156.578 559.586 155.813 557.05 155.918 556.002L156.704 554.587C158.748 553.958 158.801 554.587 159.682 554.587C160.782 554.587 161.106 559.303 158.591 559.46Z" fill="#A7AEC7"/>
<path id="Vector 41" d="M149.787 586.001C147.774 586.127 147.009 583.59 147.114 582.542L147.9 581.128C149.944 580.499 149.997 581.127 150.878 581.127C151.978 581.127 152.302 585.844 149.787 586.001Z" fill="#A7AEC7"/>
<path id="Vector 24" d="M172.111 548.77C170.098 548.896 168.066 548.459 168.171 547.411L169.114 544.11C171.158 543.481 172.331 545.783 173.211 545.783C174.312 545.783 174.626 548.613 172.111 548.77Z" fill="#A7AEC7"/>
<path id="Vector 42" d="M163.307 575.311C161.295 575.437 159.262 575 159.367 573.952L160.311 570.651C162.354 570.022 163.527 572.324 164.407 572.324C165.508 572.324 165.822 575.154 163.307 575.311Z" fill="#A7AEC7"/>
<path id="Vector 30" d="M186.574 550.028C184.562 550.153 183.158 549.717 183.263 548.669L184.687 545.154C186.731 544.525 186.794 547.041 187.674 547.041C188.775 547.041 189.089 549.87 186.574 550.028Z" fill="#A7AEC7"/>
<path id="Vector 43" d="M177.77 576.568C175.758 576.694 174.355 576.258 174.459 575.21L175.884 571.695C177.927 571.066 177.99 573.581 178.871 573.581C179.971 573.581 180.286 576.411 177.77 576.568Z" fill="#AAACB1"/>
<path id="Vector 31" d="M203.238 548.77C201.226 548.896 200.137 546.831 200.242 545.783L201.352 543.896C203.396 543.268 203.458 545.783 204.339 545.783C205.439 545.783 205.754 548.613 203.238 548.77Z" fill="#A7AEC7"/>
</g>
<path id="Vector 47" d="M177.604 560.91V586.378H197.727V560.91C196.05 559.862 191.627 557.703 187.351 557.451C183.075 557.2 179.071 559.652 177.604 560.91Z" fill="#2C2E37" stroke="#45474E"/>
<path id="Vector 48_2" d="M177.604 560.928V586.396H197.727L187.351 585.121L184.835 581.819C177.604 575.373 191.627 557.721 187.351 557.469C183.075 557.218 179.071 559.67 177.604 560.928Z" fill="#404246"/>
</g>
<g id="fan-1">
<path id="Vector 9" d="M135.269 541.377L130.801 539.376L198.289 410.811L195.115 408.217L239.591 329.3L245.151 332.1L159.582 489.148L163.258 490.253L135.269 541.377Z" fill="#696E7E" stroke="black" stroke-width="0.5"/>
<path id="Vector 10" d="M76.9514 389.164L78.7265 384.6L210.511 445.562L212.943 442.262L293.989 482.728L291.471 488.421L130.333 410.829L129.414 414.556L76.9514 389.164Z" fill="#696E7E" stroke="black" stroke-width="0.5"/>
<g id="wings">
<path id="Vector 10_2" d="M257.659 338.898L244.652 332.596L207.467 400.497L218.584 407.092L257.659 338.898Z" stroke="black"/>
<path id="Vector 11" d="M210.067 395.335L221.082 402.625" stroke="black"/>
<path id="Vector 12" d="M212.664 391.166L224.08 397.662" stroke="black"/>
<path id="Vector 13" d="M214.864 386.798L226.378 393.592" stroke="black"/>
<path id="Vector 14" d="M217.963 381.139L229.176 389.027" stroke="black"/>
<path id="Vector 15" d="M221.262 375.084L232.376 382.673" stroke="black"/>
<path id="Vector 16" d="M224.859 368.929L236.173 376.121" stroke="black"/>
<path id="Vector 17" d="M228.209 362.526L239.572 369.867" stroke="black"/>
<path id="Vector 18" d="M231.706 356.57L243.169 363.713" stroke="black"/>
<path id="Vector 19" d="M234.956 350.366L247.065 357.46" stroke="black"/>
<path id="Vector 20" d="M238.005 344.558L250.414 351.554" stroke="black"/>
<path id="Vector 21" d="M241.553 338.254L254.26 345.152M210.644 402.097L248.623 334.596" stroke="black"/>
<path id="Vector 22" d="M214.912 404.496L253.092 336.598" stroke="black"/>
</g>
<g id="wings_2">
<path id="Vector 10_3" d="M285.309 501.254L290.951 487.948L221.272 454.212L215.243 465.645L285.309 501.254Z" stroke="black"/>
<path id="Vector 11_2" d="M226.558 456.55L219.829 467.917" stroke="black"/>
<path id="Vector 12_2" d="M230.852 458.935L224.936 470.662" stroke="black"/>
<path id="Vector 13_2" d="M235.325 460.913L229.116 472.753" stroke="black"/>
<path id="Vector 14_2" d="M241.132 463.725L233.816 475.319" stroke="black"/>
<path id="Vector 15_2" d="M247.345 466.716L240.322 478.196" stroke="black"/>
<path id="Vector 16_2" d="M253.672 470.001L247.056 481.661" stroke="black"/>
<path id="Vector 17_2" d="M260.235 473.025L253.472 484.742" stroke="black"/>
<path id="Vector 18_2" d="M266.358 476.219L259.799 488.026" stroke="black"/>
<path id="Vector 19_2" d="M272.718 479.154L266.239 491.604" stroke="black"/>
<path id="Vector 20_2" d="M278.671 481.909L272.306 494.652" stroke="black"/>
<path id="Vector 21_2" d="M285.145 485.136L278.892 498.173M219.833 457.465L289.152 492.014" stroke="black"/>
<path id="Vector 22_2" d="M217.651 461.848L287.377 496.578" stroke="black"/>
</g>
<g id="wings_3">
<path id="Vector 10_4" d="M167.103 470.765L153.871 464.95L119.23 534.184L130.584 540.362L167.103 470.765Z" stroke="black"/>
<path id="Vector 11_3" d="M121.637 528.928L132.915 535.805" stroke="black"/>
<path id="Vector 12_3" d="M124.078 524.666L135.726 530.734" stroke="black"/>
<path id="Vector 13_3" d="M126.114 520.219L137.872 526.582" stroke="black"/>
<path id="Vector 14_3" d="M129.001 514.45L140.498 521.916" stroke="black"/>
<path id="Vector 15_3" d="M132.073 508.276L143.461 515.447" stroke="black"/>
<path id="Vector 16_3" d="M135.44 501.993L147.013 508.76" stroke="black"/>
<path id="Vector 17_3" d="M138.549 495.469L150.177 502.384" stroke="black"/>
<path id="Vector 18_3" d="M141.823 489.388L153.544 496.101" stroke="black"/>
<path id="Vector 19_3" d="M144.841 483.067L157.205 489.708" stroke="black"/>
<path id="Vector 20_3" d="M147.672 477.15L160.332 483.681" stroke="black"/>
<path id="Vector 21_3" d="M150.984 470.719L163.938 477.141M122.464 535.665L157.914 466.801" stroke="black"/>
<path id="Vector 22_3" d="M126.819 537.904L162.454 468.636" stroke="black"/>
</g>
<g id="wings_4">
<path id="Vector 10_5" d="M149.07 417.419L154.215 403.913L83.332 372.784L77.7309 384.433L149.07 417.419Z" stroke="black"/>
<path id="Vector 11_4" d="M88.7017 374.925L82.3986 386.533" stroke="black"/>
<path id="Vector 12_4" d="M93.0805 377.149L87.6036 389.087" stroke="black"/>
<path id="Vector 13_4" d="M97.6241 378.96L91.8583 391.022" stroke="black"/>
<path id="Vector 14_4" d="M103.531 381.554L96.6502 393.411" stroke="black"/>
<path id="Vector 15_4" d="M109.851 384.313L103.259 396.046" stroke="black"/>
<path id="Vector 16_4" d="M116.295 387.361L110.116 399.258" stroke="black"/>
<path id="Vector 17_4" d="M122.966 390.14L116.643 402.099" stroke="black"/>
<path id="Vector 18_4" d="M129.203 393.105L123.087 405.147" stroke="black"/>
<path id="Vector 19_4" d="M135.668 395.801L129.655 408.483" stroke="black"/>
<path id="Vector 20_4" d="M141.719 398.333L135.831 411.304" stroke="black"/>
<path id="Vector 21_4" d="M148.308 401.319L142.543 414.578M82.0148 376.089L152.568 408.043" stroke="black"/>
<path id="Vector 22_4" d="M79.997 380.55L150.963 412.669" stroke="black"/>
</g>
<path id="Ellipse 1" d="M192.436 435.197C193.021 438.581 190.886 441.753 187.697 442.305C184.508 442.857 181.431 440.586 180.846 437.203C180.26 433.82 182.395 430.647 185.584 430.095C188.773 429.543 191.85 431.814 192.436 435.197Z" fill="#696E7E" stroke="black" stroke-width="0.5"/>
</g>
</g>
<g id="windmill-2">
<g id="body-1_2">
<path id="Vector 1_2" d="M469.513 582.65C468.902 586.318 461.489 609.651 457.859 620.86C467.094 621.433 487.052 622.579 493.013 622.579C498.973 622.579 524.027 621.433 535.808 620.86C534.853 616.975 532.751 608.48 531.987 605.576C531.032 601.946 525.682 585.515 524.345 582.65C523.275 580.357 519.059 558.641 517.085 548.07C517.276 546.987 517.009 544.516 514.41 543.293C511.162 541.765 503.329 535.651 495.878 535.651C488.427 535.651 476.773 542.72 476.773 545.968C476.773 549.216 470.278 578.064 469.513 582.65Z" fill="#989BA7" stroke="#7E818C"/>
<path id="Vector 49_2" d="M469.705 582.363C469.093 586.031 461.394 609.651 457.764 620.86C466.998 621.433 470.048 621.719 476.009 621.719C480.977 621.719 479.926 617.898 479.926 615.224C478.971 611.339 478.493 608.002 477.729 605.098C476.773 601.468 483.365 598.889 482.027 596.023C480.957 593.731 471.042 548.07 518.04 548.07C518.231 546.987 517.964 544.516 515.366 543.293C512.118 541.765 504.285 535.651 496.834 535.651C489.383 535.651 477.06 542.242 477.06 545.49C477.06 548.738 470.469 577.778 469.705 582.363Z" fill="#313339" fill-opacity="0.05"/>
<g id="window_4">
<g id="shadow_2">
<path id="Vector 44_2" d="M489.287 567.843C488.141 567.155 493.013 566.792 495.592 566.697C496.133 566.697 497.56 566.926 498.935 567.843C500.655 568.99 500.273 568.99 499.699 569.467C499.126 569.945 499.413 571.091 501.037 572.046C502.661 573.002 499.604 573.384 498.935 573.479C498.267 573.575 497.693 574.817 496.643 575.581C495.592 576.345 492.822 574.148 491.58 574.148C490.338 574.148 491.102 572.428 491.58 571.091C492.057 569.754 489.287 570.422 489.86 569.467C490.434 568.512 490.72 568.703 489.287 567.843Z" fill="#191C27" fill-opacity="0.24"/>
<path id="Vector 46_2" d="M492.822 553.323C491.675 552.636 492.898 553.132 495.477 553.037C496.018 553.037 496.509 552.884 497.884 553.801C499.604 554.947 497.98 555.52 497.407 555.998C496.834 556.476 497.197 556.476 498.82 557.431C500.444 558.386 498.444 558.765 497.884 558.386C496.757 557.622 497.502 557.622 496.452 558.386C495.401 559.15 494.828 558.386 493.586 558.386C492.344 558.386 490.987 558.768 491.465 557.431C491.943 556.094 491.866 556.094 492.44 555.138C493.013 554.183 494.255 554.183 492.822 553.323Z" fill="#191C27" fill-opacity="0.2"/>
<path id="Vector 45_2" d="M491.484 584.942C491.484 583.325 492.853 585.051 496.034 584.942C496.702 584.942 497.43 584.565 499.126 585.611C501.247 586.918 500.865 588.505 500.158 589.05C499.451 589.595 498.938 590.157 500.941 591.247C502.944 592.336 499.126 592.011 498.744 593.731C498.564 594.543 495.933 593.241 494.637 594.113C493.341 594.984 492.617 593.441 491.085 593.441C489.553 593.441 490.496 591.479 491.085 589.954C491.674 588.429 490.013 588.706 490.72 587.617C491.427 586.527 491.484 586.566 491.484 584.942Z" fill="#191C27" fill-opacity="0.2"/>
</g>
<path id="Vector 48_3" d="M485.562 620.096C487.854 621.471 491.484 620.223 493.013 620.096L499.126 612.262C497.534 609.651 493.548 604.697 490.338 605.767C486.326 607.104 488.236 609.779 488.045 612.262C487.854 614.746 482.696 618.376 485.562 620.096Z" fill="#A7AEC7"/>
<path id="Vector 2_4" d="M498.744 591.916H491.771V585.324C492.153 584.879 493.376 583.987 495.21 583.987C497.044 583.987 498.33 584.879 498.744 585.324V591.916Z" fill="#545C78" stroke="black" stroke-width="0.5"/>
<path id="Vector 3_4" d="M497.789 586.184H493.013V591.342H497.789V586.184Z" fill="#898E9E" stroke="#4A4F60"/>
<path id="Vector 4_4" d="M495.019 591.247V586.28H495.401V591.247H495.019Z" fill="#45474E"/>
<path id="Vector 5_4" d="M493.027 588.572L497.789 588.572L497.792 588.954L493.027 588.993L493.027 588.572Z" fill="#45474E"/>
<path id="Vector 6_4" d="M490.338 584.083L491.58 585.611C491.835 585.101 492.879 584.083 495.019 584.083C497.159 584.083 498.458 584.91 498.84 585.324L499.508 583.7C498.712 583.191 496.643 582.172 494.732 582.172C492.822 582.172 491.007 583.446 490.338 584.083Z" fill="#333747" stroke="black" stroke-width="0.5"/>
</g>
<g id="window_5">
<path id="Vector 2_5" d="M498.33 572.142H492.81V567.489C493.112 567.175 494.08 566.545 495.532 566.545C496.984 566.545 498.003 567.175 498.33 567.489V572.142Z" fill="#545C78" stroke="black" stroke-width="0.5"/>
<path id="Vector 3_5" d="M497.574 568.096H493.793V571.737H497.574V568.096Z" fill="#898E9E" stroke="#4A4F60"/>
<path id="Vector 4_5" d="M495.381 571.67V568.164H495.683V571.67H495.381Z" fill="#45474E"/>
<path id="Vector 5_5" d="M493.804 569.782L497.574 569.782L497.576 570.052L493.804 570.079L493.804 569.782Z" fill="#45474E"/>
<path id="Vector 6_5" d="M491.675 566.613L492.658 567.692C492.86 567.332 493.687 566.613 495.381 566.613C497.075 566.613 498.103 567.197 498.406 567.489L498.935 566.343C498.305 565.983 496.667 565.264 495.154 565.264C493.642 565.264 492.205 566.163 491.675 566.613Z" fill="#333747" stroke="black" stroke-width="0.5"/>
</g>
<g id="window_6">
<path id="Vector 2_6" d="M497.709 557.622H493.496V554.133C493.727 553.897 494.466 553.425 495.574 553.425C496.682 553.425 497.459 553.897 497.709 554.133V557.622Z" fill="#545C78" stroke="black" stroke-width="0.5"/>
<path id="Vector 3_6" d="M497.132 554.588H494.247V557.319H497.132V554.588Z" fill="#898E9E" stroke="#4A4F60" stroke-width="0.5"/>
<path id="Vector 4_6" d="M495.459 557.268V554.638H495.689V557.268H495.459Z" fill="#45474E"/>
<path id="Vector 5_6" d="M494.255 555.852L497.132 555.852L497.134 556.054L494.255 556.075L494.255 555.852Z" fill="#45474E"/>
<path id="Vector 6_6" d="M492.631 553.475L493.381 554.284C493.535 554.015 494.166 553.475 495.459 553.475C496.751 553.475 497.536 553.913 497.767 554.133L498.171 553.273C497.69 553.003 496.44 552.464 495.285 552.464C494.131 552.464 493.035 553.138 492.631 553.475Z" fill="#333747" stroke="black" stroke-width="0.5"/>
</g>
<g id="head_3">
<path id="Vector 7_3" d="M481.932 547.496C480.327 547.496 473.94 549.598 470.946 550.649V543.962L482.409 520.272L496.261 514.254L509.825 521.036L521.002 544.822L519.855 551.508L514.506 547.496H481.932Z" fill="#8892B6" stroke="#7E818C"/>
<path id="Vector 8_3" d="M481.645 539.759L471.902 543.102L470.946 544.153L481.645 540.141L513.742 541.001L521.002 544.917L513.742 540.427L481.645 539.759Z" fill="#8892B6"/>
</g>
<g id="head_4">
<path id="Vector 7_4" d="M482.027 547.305C480.422 547.305 474.035 549.407 471.042 550.458V543.771L482.505 520.081L496.356 514.063L492.249 517.501V521.896L488.81 530.302L483.842 535.651C478.875 538.899 483.632 547.305 482.027 547.305Z" fill="#3E4045" fill-opacity="0.1"/>
<path id="Vector 8_4" d="M481.741 539.568L471.997 542.911L471.042 543.962L481.741 539.95L513.837 540.81L521.097 544.726L513.837 540.236L481.741 539.568Z" fill="#55628E"/>
</g>
<g id="Group 1_2">
<path id="Vector 23_2" d="M479.926 592.693C478.703 592.769 479.384 591.037 479.448 590.4L479.926 589.54C481.168 589.158 481.206 590.687 481.741 590.687C482.409 590.687 481.454 592.597 479.926 592.693Z" fill="#A7AEC7"/>
<path id="Vector 36_2" d="M474.576 608.82C473.354 608.896 474.035 607.164 474.099 606.527L474.576 605.667C475.818 605.285 475.856 606.814 476.391 606.814C477.06 606.814 476.105 608.724 474.576 608.82Z" fill="#A7AEC7"/>
<path id="Vector 28_2" d="M471.334 599.154C470.111 599.231 469.647 597.69 469.71 597.053L470.188 596.193C471.43 595.811 472.226 596.193 472.761 596.193C473.43 596.193 472.863 599.059 471.334 599.154Z" fill="#A7AEC7"/>
<path id="Vector 37_2" d="M465.985 615.281C464.762 615.358 464.297 613.816 464.361 613.18L464.838 612.32C466.08 611.938 466.877 612.32 467.412 612.32C468.081 612.32 467.513 615.186 465.985 615.281Z" fill="#A7AEC7"/>
<path id="Vector 27_2" d="M479.544 585.815C478.321 585.891 478.053 583.934 478.116 583.297L478.594 582.437C479.836 582.055 482.123 582.437 482.983 583.809C483.338 584.375 481.072 585.719 479.544 585.815Z" fill="#A7AEC7"/>
<path id="Vector 38_2" d="M474.194 601.942C472.972 602.018 472.703 600.061 472.767 599.424L473.245 598.564C474.486 598.182 476.773 598.564 477.633 599.936C477.988 600.502 475.723 601.846 474.194 601.942Z" fill="#A7AEC7"/>
<path id="Vector 34_2" d="M476.875 571.261C475.652 571.337 475.187 569.796 475.251 569.159L475.728 568.3C476.97 567.918 477.008 569.446 477.543 569.446C478.212 569.446 478.403 571.165 476.875 571.261Z" fill="#A7AEC7"/>
<path id="Vector 35_2" d="M482.606 571.261C481.383 571.337 480.919 569.796 480.982 569.159L481.46 568.3C482.702 567.918 484.167 568.3 484.702 568.3C485.371 568.3 484.135 571.165 482.606 571.261Z" fill="#A7AEC7"/>
<path id="Vector 33_2" d="M485.281 576.228C484.058 576.305 483.593 574.763 483.657 574.127L484.135 573.267C485.376 572.885 485.415 574.413 485.95 574.413C486.618 574.413 486.809 576.133 485.281 576.228Z" fill="#A7AEC7"/>
<path id="Vector 32_2" d="M499.036 580.813C497.814 580.89 497.349 579.349 497.413 578.712L497.89 577.852C499.132 577.47 500.024 578.712 500.559 578.712C501.228 578.712 500.565 580.718 499.036 580.813Z" fill="#A7AEC7"/>
<path id="Vector 26_2" d="M475.346 589.411C474.124 589.487 473.08 588.233 473.143 587.596L474.2 586.449C475.442 586.067 475.48 587.596 476.015 587.596C476.684 587.596 476.875 589.315 475.346 589.411Z" fill="#A7AEC7"/>
<path id="Vector 39_2" d="M469.997 605.538C468.774 605.614 467.73 604.359 467.794 603.723L468.85 602.576C470.092 602.194 470.131 603.723 470.665 603.723C471.334 603.723 471.525 605.442 469.997 605.538Z" fill="#A7AEC7"/>
<path id="Vector 25_2" d="M477.83 597.626C476.607 597.702 475.85 597.055 475.914 596.418L476.684 594.665C477.925 594.282 477.964 595.811 478.499 595.811C479.167 595.811 479.358 597.53 477.83 597.626Z" fill="#A7AEC7"/>
<path id="Vector 40_2" d="M472.48 613.753C471.258 613.829 470.501 613.182 470.564 612.545L471.334 610.791C472.576 610.409 472.614 611.938 473.149 611.938C473.818 611.938 474.009 613.657 472.48 613.753Z" fill="#A0A4B0"/>
<path id="Vector 29_2" d="M477.83 604.886C476.607 604.962 476.142 603.421 476.206 602.784L476.684 601.924C477.925 601.542 477.958 601.924 478.493 601.924C479.162 601.924 479.358 604.79 477.83 604.886Z" fill="#A7AEC7"/>
<path id="Vector 41_2" d="M472.48 621.013C471.258 621.089 470.793 619.548 470.857 618.911L471.334 618.051C472.576 617.669 472.609 618.051 473.143 618.051C473.812 618.051 474.009 620.917 472.48 621.013Z" fill="#A7AEC7"/>
<path id="Vector 24_2" d="M486.045 598.39C484.822 598.467 483.588 598.201 483.651 597.565L484.224 595.559C485.466 595.176 486.179 596.575 486.714 596.575C487.382 596.575 487.573 598.295 486.045 598.39Z" fill="#A7AEC7"/>
<path id="Vector 42_2" d="M480.696 614.517C479.473 614.593 478.238 614.328 478.302 613.691L478.875 611.685C480.117 611.303 480.829 612.702 481.364 612.702C482.033 612.702 482.224 614.421 480.696 614.517Z" fill="#A7AEC7"/>
<path id="Vector 30_2" d="M494.833 599.154C493.611 599.231 492.758 598.966 492.822 598.329L493.687 596.193C494.929 595.811 494.967 597.339 495.502 597.339C496.171 597.339 496.362 599.059 494.833 599.154Z" fill="#A7AEC7"/>
<path id="Vector 43_2" d="M489.484 615.281C488.261 615.358 487.409 615.092 487.472 614.456L488.338 612.32C489.579 611.938 489.618 613.466 490.153 613.466C490.821 613.466 491.012 615.186 489.484 615.281Z" fill="#AAACB1"/>
<path id="Vector 31_2" d="M504.959 598.39C503.736 598.466 503.075 597.212 503.138 596.575L503.813 595.429C505.055 595.047 505.093 596.575 505.628 596.575C506.296 596.575 506.487 598.295 504.959 598.39Z" fill="#A7AEC7"/>
</g>
<path id="Vector 47_2" d="M489.383 605.767V621.242H501.61V605.767C500.591 605.13 497.904 603.818 495.305 603.665C492.707 603.512 490.274 605.003 489.383 605.767Z" fill="#2C2E37" stroke="black"/>
<path id="Vector 48_4" d="M489.383 605.778V621.253H501.61L495.305 620.478L493.777 618.472C489.383 614.555 497.904 603.829 495.305 603.676C492.707 603.523 490.274 605.013 489.383 605.778Z" fill="#404246"/>
</g>
<g id="fan-2">
<path id="Vector 9_2" d="M463.659 593.898L460.944 592.682L501.952 514.563L500.023 512.986L527.048 465.035L530.426 466.736L478.432 562.162L480.666 562.833L463.659 593.898Z" fill="#696E7E" stroke="black" stroke-width="0.5"/>
<path id="Vector 10_6" d="M428.224 501.409L429.302 498.636L509.378 535.679L510.856 533.673L560.102 558.261L558.572 561.72L460.66 514.574L460.102 516.838L428.224 501.409Z" fill="#696E7E" stroke="black" stroke-width="0.5"/>
<g id="wings_5">
<path id="Vector 10_7" d="M538.026 470.866L530.123 467.037L507.528 508.296L514.283 512.303L538.026 470.866Z" stroke="black"/>
<path id="Vector 11_5" d="M509.108 505.159L515.802 509.589" stroke="black"/>
<path id="Vector 12_5" d="M510.686 502.626L517.623 506.573" stroke="black"/>
<path id="Vector 13_5" d="M512.023 499.972L519.02 504.1" stroke="black"/>
<path id="Vector 14_5" d="M513.906 496.533L520.719 501.326" stroke="black"/>
<path id="Vector 15_5" d="M515.911 492.854L522.664 497.465" stroke="black"/>
<path id="Vector 16_5" d="M518.097 489.114L524.971 493.484" stroke="black"/>
<path id="Vector 17_5" d="M520.132 485.223L527.036 489.684" stroke="black"/>
<path id="Vector 18_5" d="M522.257 481.605L529.222 485.945" stroke="black"/>
<path id="Vector 19_5" d="M524.231 477.834L531.589 482.145" stroke="black"/>
<path id="Vector 20_5" d="M526.084 474.306L533.624 478.557" stroke="black"/>
<path id="Vector 21_5" d="M528.24 470.475L535.961 474.667M509.459 509.268L532.536 468.253" stroke="black"/>
<path id="Vector 22_5" d="M512.052 510.726L535.251 469.469" stroke="black"/>
</g>
<g id="wings_6">
<path id="Vector 10_8" d="M554.827 569.518L558.256 561.433L515.917 540.934L512.253 547.881L554.827 569.518Z" stroke="black"/>
<path id="Vector 11_6" d="M519.129 542.355L515.04 549.262" stroke="black"/>
<path id="Vector 12_6" d="M521.738 543.804L518.143 550.929" stroke="black"/>
<path id="Vector 13_6" d="M524.456 545.006L520.683 552.201" stroke="black"/>
<path id="Vector 14_6" d="M527.984 546.714L523.539 553.759" stroke="black"/>
<path id="Vector 15_6" d="M531.759 548.532L527.492 555.508" stroke="black"/>
<path id="Vector 16_6" d="M535.604 550.528L531.584 557.613" stroke="black"/>
<path id="Vector 17_6" d="M539.592 552.365L535.482 559.485" stroke="black"/>
<path id="Vector 18_6" d="M543.312 554.307L539.327 561.481" stroke="black"/>
<path id="Vector 19_6" d="M547.177 556.09L543.24 563.655" stroke="black"/>
<path id="Vector 20_6" d="M550.794 557.763L546.926 565.507" stroke="black"/>
<path id="Vector 21_6" d="M554.727 559.725L550.928 567.646M515.042 542.911L557.163 563.904" stroke="black"/>
<path id="Vector 22_6" d="M513.717 545.574L556.084 566.677" stroke="black"/>
</g>
<g id="wings_7">
<path id="Vector 10_9" d="M483.002 550.992L474.962 547.459L453.913 589.527L460.812 593.281L483.002 550.992Z" stroke="black"/>
<path id="Vector 11_7" d="M455.376 586.334L462.229 590.512" stroke="black"/>
<path id="Vector 12_7" d="M456.859 583.744L463.937 587.431" stroke="black"/>
<path id="Vector 13_7" d="M458.096 581.042L465.241 584.908" stroke="black"/>
<path id="Vector 14_7" d="M459.851 577.536L466.837 582.073" stroke="black"/>
<path id="Vector 15_7" d="M461.717 573.785L468.637 578.142" stroke="black"/>
<path id="Vector 16_7" d="M463.763 569.967L470.795 574.079" stroke="black"/>
<path id="Vector 17_7" d="M465.652 566.003L472.718 570.205" stroke="black"/>
<path id="Vector 18_7" d="M467.642 562.308L474.763 566.387" stroke="black"/>
<path id="Vector 19_7" d="M469.475 558.467L476.988 562.502" stroke="black"/>
<path id="Vector 20_7" d="M471.196 554.872L478.888 558.84" stroke="black"/>
<path id="Vector 21_7" d="M473.208 550.965L481.079 554.866M455.879 590.427L477.419 548.584" stroke="black"/>
<path id="Vector 22_7" d="M458.524 591.787L480.177 549.699" stroke="black"/>
</g>
<g id="wings_8">
<path id="Vector 10_10" d="M472.045 518.578L475.171 510.371L432.101 491.457L428.697 498.535L472.045 518.578Z" stroke="black"/>
<path id="Vector 11_8" d="M435.364 492.757L431.534 499.811" stroke="black"/>
<path id="Vector 12_8" d="M438.024 494.109L434.696 501.363" stroke="black"/>
<path id="Vector 13_8" d="M440.785 495.209L437.282 502.539" stroke="black"/>
<path id="Vector 14_8" d="M444.374 496.786L440.193 503.99" stroke="black"/>
<path id="Vector 15_8" d="M448.214 498.462L444.209 505.591" stroke="black"/>
<path id="Vector 16_8" d="M452.13 500.314L448.376 507.543" stroke="black"/>
<path id="Vector 17_8" d="M456.183 502.002L452.341 509.269" stroke="black"/>
<path id="Vector 18_8" d="M459.974 503.804L456.257 511.121" stroke="black"/>
<path id="Vector 19_8" d="M463.901 505.442L460.248 513.148" stroke="black"/>
<path id="Vector 20_8" d="M467.578 506.981L464 514.862" stroke="black"/>
<path id="Vector 21_8" d="M471.582 508.795L468.079 516.852M431.3 493.464L474.17 512.881" stroke="black"/>
<path id="Vector 22_8" d="M430.074 496.175L473.195 515.692" stroke="black"/>
</g>
<path id="Ellipse 1_2" d="M498.052 529.44C498.378 531.323 497.189 533.057 495.456 533.356C493.724 533.656 492.021 532.423 491.696 530.54C491.37 528.657 492.559 526.923 494.291 526.623C496.024 526.324 497.726 527.557 498.052 529.44Z" fill="#696E7E" stroke="black"/>
</g>
</g>
<g id="mountain">
<g id="Vector">
<path d="M177 735L182 718V724.5L184.5 721.5L186.5 723.5V720L188.5 722.5L190.5 719.5L192 721.5L193 719L194.312 719.5L195.5 717.5L197 719L197.5 717.5L199.5 719L201 715.5L202 716.5L203.5 714L205.5 716C205.667 715.667 206 714.3 206 711.5C206 710.478 205.956 709.824 205.891 709.423C205.736 709.245 205.599 709.099 205.5 709C205.606 708.788 205.779 708.725 205.891 709.423C206.257 709.843 206.719 710.438 207 711C207.4 711.8 207.833 713.667 208 714.5L208.5 712L209.5 714.5L211.5 711L212.5 712.5L213.5 710.5L214.5 711.5L215.5 710.5H217L218 709.5H219L220 707.5L220.5 709L222 707.5L223 708L224 707H225.5L226 706L227 706.5L227.5 704.5L228.5 705.5L229.5 704.5L230 705L231 704H232L233.5 702.5L235 703V701L236 702.5L236.5 701.5H238L238.5 700.5L240 701L241 699.5H243L244 698.5L245 699L244.5 697L246.5 698L247.5 696.5L248.5 697V695.5L250 696.5L251 695.5H252L252.5 694L254 695L254.5 692.5L257 693L257.5 692.5H259L259.5 691.5L261.5 691L262.5 689.5H264L265.5 688.5H267V686L268.5 687.5L269 686L270.5 687L271.5 685L273 685.5L274.5 684H275L276.5 683H277.5V681.5L278.5 682.5L279.5 681L280.5 681.5L282 680.5H283.812L284.5 678.5L285.5 679L286 676L288 678L288.5 677H289.5L290 676H291L291.5 674.5L292.5 675L293.5 673.5L294.5 674L295.5 672.5L296.5 673L297 670.5L298 671.5L299 669.5L300 670.5L301.5 668.5L302.5 669.5L303 668H305.5L306 666.5H306.5L307.5 665L309 666L309.5 665H310.5L311.5 663.5H312.688L313 662.5H314.5L315.5 661.5H317L317.5 660H319.25L320.5 659H322L323.5 657.5H324.5V655.5L326 657L326.5 656L328 656.5L329 655H330L330.5 653.5L332 654.5L333 653H334.5L335.5 651.5L336.5 652.5L337.5 651L338.5 651.5L339 648.5L340 651L341 649.5L342.5 650L343 648.5L344.5 649L345 647.5L346 648.5L346.5 646.5L348 647.5L349.5 645L351 646.5L350.5 644L352 645.5L353 644.5L354 645V644H355.5L354.5 641.5L357.75 644V642L359.5 643L360.5 641.5L361.5 642.5L362.5 640.5L363.5 641L364.5 639.5L366 640.5L367 639L368.5 639.5L369.5 638L371 638.5L372 636.5L373.5 637.5V634.5L375 637L376 636L377 636.5L378 634L379 635L379.5 633.5H381L382 632L383.5 633L384 632L386 632.5L387.5 631.5H389L389.5 631H390.5L391 629L392 630L393 629L394.5 630L395 628.5L396 629L396.5 628.5L397.5 629L398.5 627.5L399.5 628L400.5 627H402L402.5 625.5L403 626.5L404.312 625.5L405.5 626L406.5 624L407.5 625L409 623.5L410 624.5L411 623L412.5 624L413 622.5L414 623L415 622L416 622.5L417 621L418 622L418.5 620.5L419.5 621L422 620.5L422.5 621L423 620L424 622L425 621L426.5 622L427.5 620L428.5 621L430 620L430.5 621L431.5 620L432.5 621L434 620.5L435.5 621L436.5 620L437 621L438.5 619.5L439 621L440 620L441 621L442 620L443 621.5L444 620.5L445 621L446.5 620.5L447.5 621H448.5L449.5 621.5V620.5L451 621.5L451.5 620.5L452.5 621L453.5 620.5L454.5 621.5L455.5 620.5L456 621H456.5L457.5 621.5L458.5 620.5L459 621.5L459.5 620.5L460.5 621.5L462 620L463 621L464 620.5L465.5 621.5L466.5 620.5L467.5 621L468.5 620L469.5 621L471 620.5L472.5 621L473.312 620L474 621.5L475 620.5L476.5 621L477 620.5L478 621.5L479 620L479.5 621L481 620L481.5 621.5L482.5 620L483.5 621L484.5 620.5L485.5 621.5L486.5 620L487 621.5L488 620.5L489 621L490 620L491 621L492 620.5L492.5 621.5L493.5 620.5L494 621L495 620.5L496 621L497 620.5L497.5 621.5L498 619L498.5 621L499 618L499.5 621.5L501 620.5L502 621L503.5 620.5L504.5 621.5L505.5 621L507 621.5L508 620.5L508.5 621L509.5 619.5L510 621L510.5 620L511 621L512 620.5L512.5 621L514 620L515 621.5L516 620.5L516.5 621L517.5 620L518 621.5L519 620L520 621L520.5 620L521.5 621L522.5 620L523 621L524.5 620.5L525.5 621.5L526.5 620L528 621L528.5 620L530 620.5L531 619.5L532 620V618L533.5 620L534 619.5L535 620.5L535.5 619.5L536.5 620L537.5 619.5H538L539 618.5L539.5 619.5L541 618.5L542 619.5V618L543 619.5L544 618L545 619.5L546 618L547 619.5L548.5 618L549 619L550 618L551 618.5L551.5 618L552.5 618.5L553.5 617.5L554 618L555 616L555.5 618L556.5 617L558 617.5L558.5 616L559.5 617.5L560.5 616.5L562 617L563 616L563.5 617L565 615.5L566 616.5L567 616L568.5 616.5L569.5 615.5L570.5 616.5L571 614.5L572 616L572.5 614.5L574 616L575.5 615L576 616L577 615L578 615.5L579.5 615L580 615.5L581 614.5L581.688 615L582.5 614L583 615L584.5 614L585.5 615L586.5 614.5L587.25 615L588.312 614L589 615L590 614L590.5 614.5L592 614L593 614.5L594 613.5L595 614.5L596.5 613.5L597 614.5L598.5 612V614L601 612V614.5L602.5 613.5L604.5 615L606 613V614L608.5 613.5L609.5 615L610.5 613.5L611.5 615L613 613V614L615 613.5L615.5 615L617 614.5L617.5 615.5L619.5 615L621 615.5L622 614.5L623 616L624.5 615.5L625 617L626.75 616L627.5 617H629.5L630.5 618L632 617.5L632.5 619L634 618V619.5L636.5 617.5L636 620H637.5L638 621.5L639 621L640.5 622.5H642L642.5 624.5L644 623.5L644.5 625L646.5 624.5L646 625.5L648.25 624.5V627L650 626.5L650.5 627.5L652.5 626.5L653 628.5L655 628L655.5 630L657 629.5L658.5 630.5L661 629.5L661.5 631.5H662.5L663.5 632.5L665.5 632L666.5 633.5L668 633L668.5 634.5L670.5 633.5L671 635L672.5 634.5L674 637.5L677 634.5L676.5 637.5L679.5 636V638.5L682.5 637.5V639L684.5 638.5L686 641L687.5 640L688.5 641L690.5 640.5L691.5 642.5L693.5 641L694.5 643.5L697 642.5L697.5 644L699 643V644L702 643.5L702.5 645.5L704.5 644.5L705 646.5L707.5 645.5L708.5 646.5H709.5L710.5 648L711.5 647.5L713 648.5L715 648L715.5 649.5L717.5 648.5V650L720 648.5L720.5 651H723L724.5 652L725.5 651L726 652H728L728.5 653L729.5 652L730 653.5L733.5 652.5L734 654.5H736.5L738 656H739L739.5 656.5L740.5 655L742 657H743.5L744 658L745.5 656.5L746.5 658L748 657.5L749 659L750 658.5L751 659.5L752 659L753.5 660H755L756 661L756.5 658.5L757.5 661L761.25 660L761 662H763L764 663.5L767 662.5L767.5 664L770 663.5L770.5 665L773.5 664L774 666L775.5 665.5L776.5 666.5L778.5 666L779 667.5L781.5 665.5V668L784 667.5L784.5 669L787 668.5V670L789.5 668.5L790 670L792.5 669.5V671.5L795.5 671L796 672L797 671.5L798 672.5L799.5 672L800 673L802.5 671L802 673.5L803.5 673L804.5 674.5L805.5 673.5L807 675L808.5 674.5L809.5 675.5L811 675V676L813 675L814 677L816 676L816.5 677L818.5 676L818 678L820.5 677.5L821 679L823 678V679L825.5 679.5L826 680.5L827.5 680L829 681.5L830.5 681V682L832 681V682.5L833.5 683L834 684H835.5L836 685H837L837.5 686L839.5 684.5V686.5H841.5L842 687.5L843.5 687V689L846 688V690H847.5L848 691L849.5 688.5V691.5L852.5 689.5L851.5 693H853.5L854 694L855.5 693.5L856 695.5L858.5 693L858 695.5L859.5 696L860.5 697L862.5 695.5V698L864 697.5L864.5 699.5L867.5 697.5L867 699.5H869L869.5 701L871 700.5L871.5 702L873.5 701.5L874 703.5L875.5 702L876 704H878.5V705.5L880 704.5L881 706L882 705.5L882.5 707L884 706.5L885 708L887 707V709L888.5 707.5V710L890.5 709.5L891 710.5L892.5 710L893 712L894.5 711.5L895 712.5L896.5 712L897 713.5L899.5 712.5L900 714.5L901.5 711.5V715.5L902.5 714L904 716L905 715L905.5 717L906.5 716V717.5L909 715.5V718H911V719.5L913.5 718.5V719.5L915.5 719L916 721L917.5 720.5L918 722L919 721L920 722.5L922.5 720L922 723L924 722V723.5L925.5 723L926.5 725L927.5 724.5L928 726L929 724.5L930 726H932L932.5 727L934.5 726L935.5 727.5H937L937.5 728.5L940 729L940.5 730L942.5 729.5L943 730.5L945 729.5V731L947 730.5L947.5 732.5L949.5 731.5L950.5 733L952 732.5L953 734L954 733L954.5 734L955.5 733.5L956 734.5L957.5 733.5L958 735L959.5 734V736L961 735.5L961.5 736.5L963.5 736L964 737.5L965.188 735V737.5H967.5L968.5 738.5L970 737.5V738.688L972.5 737.5L973 739.5L974.5 738L975 740L976.5 739.5L977.5 740.5L979.5 739V741L980.5 740.5L981.5 742L983.5 740L985 743.5L987 741V743L989 742L990 743L991 742.5L991.5 743.5L993.5 742.5L994 744.5L995.5 742.5L996.5 744L997.5 743L998.5 744.5L1000 744L1001.5 746L1003 744.5L1004 746L1006 743.5L1006.5 745.5H1009.5L1010 746.5L1012 746L1013 747L1014 746L1014.5 747.5L1016 746.5L1017 748L1018.5 746.5L1019.5 747.5L1020.5 746.5L1021.5 747L1022.5 746.5L1023.5 748L1025 747L1025.5 748L1028 747L1028.5 747.5L1030 747L1030.5 747.5L1032 747L1033 748L1035 747L1037 748L1038 747L1039.5 747.5L1040.5 747L1042 748L1042.5 745L1043.5 747.5L1045 746.5L1045.5 747.5L1047 746L1047.5 747L1049.5 746L1050.31 746.5L1052 746L1053 747L1055 745.5L1056 747L1057 745L1058.5 746.5L1060 744.5L1061.19 746L1063 745L1064.5 746L1066 744.5L1066.5 745.5L1068.5 744.5L1069.5 745.5L1071 744.5L1072 745L1073 743.5L1074 744.5L1074.5 743.5L1076 745L1076.5 743.5L1078 744.5L1079 742.5L1080 744L1081 742.5L1082 743L1083 742L1085.5 743L1086.5 741.5L1088 742.5L1089.5 741L1090.5 742L1091.5 741L1092.75 741.5L1093 740.5L1095 741.5L1094.5 739.5L1096 741.5L1097 740L1099 741L1100 739.5L1100.5 740.5L1102 739.5L1103.5 740L1104 739L1105 740L1106 738L1107.5 739.5L1108 738L1109 739L1110 737.5L1111.5 738.5L1112 737L1113.5 738.5L1115.5 737L1117 737.5L1118 736.5L1119.5 737L1121 735.5L1122.5 736.5L1123.5 735L1125.5 736L1126 734.5L1129 735.5L1130 734L1130.5 735L1132 733.5L1132.5 734.5L1134 733.5L1135 734L1136.5 733L1137.5 733.5L1139 732L1140.5 733L1141 732L1143 733L1144.5 731L1146 732.5L1146.5 731.5L1147.5 732L1149 731L1150 732L1151 730.5H1152.5L1153.5 730L1155.5 730.5L1157.5 729.5L1158.75 730L1159.5 729.5L1161 730L1163.5 728L1165.5 729L1166.5 727.5L1167.5 729L1169.5 727L1171 728L1172 726L1173 728L1175 726.5L1176 727L1177 726L1179 727L1181 725.5L1182.5 726.5L1184.5 725L1185.5 726.5L1187 725L1189 726L1190.5 724.5L1191.5 725L1193 724.5L1194.5 725L1196.5 723.5L1198 724.5L1200 723.5L1201 724L1202.5 722.5L1203.75 724.5L1205 722.5L1206.5 724L1209 722.5L1209.5 724L1211.5 723L1213 724.5L1215 721L1216.5 724L1217.69 722.5L1218.5 724L1220.5 722.5L1221.5 724L1222.25 722.5L1223.5 724L1225.5 722.5L1226.5 724L1229 722.5L1230.5 724L1232 723L1233 724L1236 723L1237 724.5L1238 723.5L1239 725.5L1241 723.5L1242 724.5L1244 724L1245 725.5L1246.5 724.5L1249 726.5L1250.5 725L1251 726.5L1252.5 725.5L1253.5 727.5L1254.5 726.5L1256 727.5L1257 727L1258.5 729L1260.5 728L1261 730L1262 729L1262.5 730L1264 729L1264.5 731L1266.5 730L1267 731.5L1268.5 731V733L1271 732L1271.5 733H1272.5L1273.5 734.5L1275.5 733.5L1276.5 735.5L1278 735L1279.5 737.5L1281 736.5L1282 738L1283.5 737L1284 738.5L1285.5 738L1286 740L1287.5 739.5L1288.5 740.5L1290 740L1290.5 741.5H1293V743L1294 742.5L1295 743.5L1295.5 743L1296.5 744.5L1298 743L1298.5 745H1300L1300.5 746H1302L1302.5 747H1305L1305.5 748H1306.5V749H1308.5L1309 750L1309.5 749.5L1310.5 751L1311.81 750L1313 752H1314L1315 753L1316 752.5L1317.5 754.5L1319.5 753.5L1320 755.5L1321 755L1322.5 756.5H1323.5L1324.5 757.5L1326 756.5V758.5L1327.5 757.5V759.5L1329.5 758.5V760L1331 758.5V760H1332.5L1333.5 761.5L1335 761V762.5H1337L1338.5 763.5L1340 762.5V765L1342 763.5L1343.5 765.5L1344.5 765V767L1346.5 766.5L1347 767.5L1348.5 767L1349.5 768H1352L1353.5 770H1354.5L1355.5 771.5L1358.5 770.5V773L1361 771.5V774L1363.5 772.5L1364.5 774H1367L1367.5 775.5H1370L1371 777L1373 775.5V778L1375.5 777L1376.5 778L1377.5 777V779.5H1380L1381 781L1383.5 779.5L1384.5 782L1387.5 781L1388.5 783L1390 782L1392 784L1393.5 782L1395.5 786L1398 784L1399 786.5L1401.5 786L1403 787.5L1406.5 786L1408.5 789L1411 787.5L1412 790L1412.5 788.5L1414.5 790H1416L1417 790.5L1418.5 790L1420 791.5L1420.5 791L1421.5 792.5L1423.5 791.5V792.5L1425 791.5L1426.5 792.5H1427.5L1429.5 794.5L1431.5 792.5L1432.5 794.5L1434.5 793.5L1435.5 794.5L1437 793.5L1438 795.5L1440.5 794.5V795.5H1442L1443 796.5L1445 795.5L1446 796.5L1447 795.5L1448 798L1450 796.5L1451 798.5L1452 796.5L1454 798L1455 797.5L1458 799.5L1460 798L1461.5 799.5L1463.5 798.5L1466.5 800.5L1469 799.5L1471 800.5H1473L1474.5 801.5L1476.5 800.5V802.5L1479 800.5L1480.5 802.5L1482.5 801.5L1483.5 802.5L1484.5 801.5L1487 802.5L1487.5 803.5L1489 801.5V803.5L1492 801.5L1493.5 803.5L1494.5 802.5L1496 805L1497.5 803.5L1499 805L1501 803.5L1502.5 805.5L1504.5 803.5L1507 805.5L1509 805V806.5L1510.5 805L1514.5 806.5L1515.5 805.5L1518 807L1519.5 805.5L1521 807L1522 806.5L1524 808L1526 806.5L1527 808L1529 806.5L1530 808L1531 807L1532.5 808.5L1534 808L1535 808.5L1537.5 807L1539 809.5L1541 808L1542 809.5L1543.5 808.5L1545.5 810.5L1549 809.5L1550 810.5L1552 809.5L1554.5 812L1555.5 810.5L1557 812L1558 810.5L1560.5 812.5L1563 811.5L1564 813.5L1567 812L1569 814.5L1570 812.5L1571 814.5L1575 813.5L1578 815.5L1579 813.5L1581 815.5H1582.5L1584.5 816.5L1586.5 815.5L1588 818L1590 816.5L1591 818.5L1595 818L1596 820L1598.5 819V820H1601V821.5L1603.5 820L1604 822L1606 821.5V824L1609 822L1609.5 824.5H1611.5V826H1614V827L1617 826V828H1619L1624 1018L172 998L177 735Z" fill="#CFFFB8"/>
<path d="M301.004 669.814C272.576 687.619 206.92 716.091 168 728.102V1010H1628V834.078C1598.89 815.003 1581.3 814.155 1483.83 802.285C1361.99 787.449 1315.29 747.178 1258.43 728.102C1201.57 709.026 1093.95 751.417 1018.82 747.178C958.715 743.786 866.526 701.254 827.944 680.412C772.78 665.929 657.577 633.782 638.083 621.065C613.716 605.169 551.783 621.065 516.248 621.065H419.794C392.043 629.897 329.433 652.01 301.004 669.814Z" fill="#CFFFB8"/>
</g>
<g id="Vector_2">
<path d="M-149 698L-144 681V687.5L-141.5 684.5L-139.5 686.5V683L-137.5 685.5L-135.5 682.5L-134 684.5L-133 682L-131.688 682.5L-130.5 680.5L-129 682L-128.5 680.5L-126.5 682L-125 678.5L-124 679.5L-122.5 677L-120.5 679C-120.333 678.667 -120 677.3 -120 674.5C-120 673.478 -120.044 672.824 -120.109 672.423C-120.264 672.245 -120.401 672.099 -120.5 672C-120.394 671.788 -120.221 671.725 -120.109 672.423C-119.743 672.843 -119.281 673.438 -119 674C-118.6 674.8 -118.167 676.667 -118 677.5L-117.5 675L-116.5 677.5L-114.5 674L-113.5 675.5L-112.5 673.5L-111.5 674.5L-110.5 673.5H-109L-108 672.5H-107L-106 670.5L-105.5 672L-104 670.5L-103 671L-102 670H-100.5L-100 669L-99 669.5L-98.5 667.5L-97.5 668.5L-96.5 667.5L-96 668L-95 667H-94L-92.5 665.5L-91 666V664L-90 665.5L-89.5 664.5H-88L-87.5 663.5L-86 664L-85 662.5H-83L-82 661.5L-81 662L-81.5 660L-79.5 661L-78.5 659.5L-77.5 660V658.5L-76 659.5L-75 658.5H-74L-73.5 657L-72 658L-71.5 655.5L-69 656L-68.5 655.5H-67L-66.5 654.5L-64.5 654L-63.5 652.5H-62L-60.5 651.5H-59V649L-57.5 650.5L-57 649L-55.5 650L-54.5 648L-53 648.5L-51.5 647H-51L-49.5 646H-48.5V644.5L-47.5 645.5L-46.5 644L-45.5 644.5L-44 643.5H-42.1875L-41.5 641.5L-40.5 642L-40 639L-38 641L-37.5 640H-36.5L-36 639H-35L-34.5 637.5L-33.5 638L-32.5 636.5L-31.5 637L-30.5 635.5L-29.5 636L-29 633.5L-28 634.5L-27 632.5L-26 633.5L-24.5 631.5L-23.5 632.5L-23 631H-20.5L-20 629.5H-19.5L-18.5 628L-17 629L-16.5 628H-15.5L-14.5 626.5H-13.3125L-13 625.5H-11.5L-10.5 624.5H-9L-8.5 623H-6.75L-5.5 622H-4L-2.5 620.5H-1.5V618.5L0 620L0.5 619L2 619.5L3 618H4L4.5 616.5L6 617.5L7 616H8.5L9.5 614.5L10.5 615.5L11.5 614L12.5 614.5L13 611.5L14 614L15 612.5L16.5 613L17 611.5L18.5 612L19 610.5L20 611.5L20.5 609.5L22 610.5L23.5 608L25 609.5L24.5 607L26 608.5L27 607.5L28 608V607H29.5L28.5 604.5L31.75 607V605L33.5 606L34.5 604.5L35.5 605.5L36.5 603.5L37.5 604L38.5 602.5L40 603.5L41 602L42.5 602.5L43.5 601L45 601.5L46 599.5L47.5 600.5V597.5L49 600L50 599L51 599.5L52 597L53 598L53.5 596.5H55L56 595L57.5 596L58 595L60 595.5L61.5 594.5H63L63.5 594H64.5L65 592L66 593L67 592L68.5 593L69 591.5L70 592L70.5 591.5L71.5 592L72.5 590.5L73.5 591L74.5 590H76L76.5 588.5L77 589.5L78.3125 588.5L79.5 589L80.5 587L81.5 588L83 586.5L84 587.5L85 586L86.5 587L87 585.5L88 586L89 585L90 585.5L91 584L92 585L92.5 583.5L93.5 584L96 583.5L96.5 584L97 583L98 585L99 584L100.5 585L101.5 583L102.5 584L104 583L104.5 584L105.5 583L106.5 584L108 583.5L109.5 584L110.5 583L111 584L112.5 582.5L113 584L114 583L115 584L116 583L117 584.5L118 583.5L119 584L120.5 583.5L121.5 584H122.5L123.5 584.5V583.5L125 584.5L125.5 583.5L126.5 584L127.5 583.5L128.5 584.5L129.5 583.5L130 584H130.5L131.5 584.5L132.5 583.5L133 584.5L133.5 583.5L134.5 584.5L136 583L137 584L138 583.5L139.5 584.5L140.5 583.5L141.5 584L142.5 583L143.5 584L145 583.5L146.5 584L147.312 583L148 584.5L149 583.5L150.5 584L151 583.5L152 584.5L153 583L153.5 584L155 583L155.5 584.5L156.5 583L157.5 584L158.5 583.5L159.5 584.5L160.5 583L161 584.5L162 583.5L163 584L164 583L165 584L166 583.5L166.5 584.5L167.5 583.5L168 584L169 583.5L170 584L171 583.5L171.5 584.5L172 582L172.5 584L173 581L173.5 584.5L175 583.5L176 584L177.5 583.5L178.5 584.5L179.5 584L181 584.5L182 583.5L182.5 584L183.5 582.5L184 584L184.5 583L185 584L186 583.5L186.5 584L188 583L189 584.5L190 583.5L190.5 584L191.5 583L192 584.5L193 583L194 584L194.5 583L195.5 584L196.5 583L197 584L198.5 583.5L199.5 584.5L200.5 583L202 584L202.5 583L204 583.5L205 582.5L206 583V581L207.5 583L208 582.5L209 583.5L209.5 582.5L210.5 583L211.5 582.5H212L213 581.5L213.5 582.5L215 581.5L216 582.5V581L217 582.5L218 581L219 582.5L220 581L221 582.5L222.5 581L223 582L224 581L225 581.5L225.5 581L226.5 581.5L227.5 580.5L228 581L229 579L229.5 581L230.5 580L232 580.5L232.5 579L233.5 580.5L234.5 579.5L236 580L237 579L237.5 580L239 578.5L240 579.5L241 579L242.5 579.5L243.5 578.5L244.5 579.5L245 577.5L246 579L246.5 577.5L248 579L249.5 578L250 579L251 578L252 578.5L253.5 578L254 578.5L255 577.5L255.688 578L256.5 577L257 578L258.5 577L259.5 578L260.5 577.5L261.25 578L262.312 577L263 578L264 577L264.5 577.5L266 577L267 577.5L268 576.5L269 577.5L270.5 576.5L271 577.5L272.5 575V577L275 575V577.5L276.5 576.5L278.5 578L280 576V577L282.5 576.5L283.5 578L284.5 576.5L285.5 578L287 576V577L289 576.5L289.5 578L291 577.5L291.5 578.5L293.5 578L295 578.5L296 577.5L297 579L298.5 578.5L299 580L300.75 579L301.5 580H303.5L304.5 581L306 580.5L306.5 582L308 581V582.5L310.5 580.5L310 583H311.5L312 584.5L313 584L314.5 585.5H316L316.5 587.5L318 586.5L318.5 588L320.5 587.5L320 588.5L322.25 587.5V590L324 589.5L324.5 590.5L326.5 589.5L327 591.5L329 591L329.5 593L331 592.5L332.5 593.5L335 592.5L335.5 594.5H336.5L337.5 595.5L339.5 595L340.5 596.5L342 596L342.5 597.5L344.5 596.5L345 598L346.5 597.5L348 600.5L351 597.5L350.5 600.5L353.5 599V601.5L356.5 600.5V602L358.5 601.5L360 604L361.5 603L362.5 604L364.5 603.5L365.5 605.5L367.5 604L368.5 606.5L371 605.5L371.5 607L373 606V607L376 606.5L376.5 608.5L378.5 607.5L379 609.5L381.5 608.5L382.5 609.5H383.5L384.5 611L385.5 610.5L387 611.5L389 611L389.5 612.5L391.5 611.5V613L394 611.5L394.5 614H397L398.5 615L399.5 614L400 615H402L402.5 616L403.5 615L404 616.5L407.5 615.5L408 617.5H410.5L412 619H413L413.5 619.5L414.5 618L416 620H417.5L418 621L419.5 619.5L420.5 621L422 620.5L423 622L424 621.5L425 622.5L426 622L427.5 623H429L430 624L430.5 621.5L431.5 624L435.25 623L435 625H437L438 626.5L441 625.5L441.5 627L444 626.5L444.5 628L447.5 627L448 629L449.5 628.5L450.5 629.5L452.5 629L453 630.5L455.5 628.5V631L458 630.5L458.5 632L461 631.5V633L463.5 631.5L464 633L466.5 632.5V634.5L469.5 634L470 635L471 634.5L472 635.5L473.5 635L474 636L476.5 634L476 636.5L477.5 636L478.5 637.5L479.5 636.5L481 638L482.5 637.5L483.5 638.5L485 638V639L487 638L488 640L490 639L490.5 640L492.5 639L492 641L494.5 640.5L495 642L497 641V642L499.5 642.5L500 643.5L501.5 643L503 644.5L504.5 644V645L506 644V645.5L507.5 646L508 647H509.5L510 648H511L511.5 649L513.5 647.5V649.5H515.5L516 650.5L517.5 650V652L520 651V653H521.5L522 654L523.5 651.5V654.5L526.5 652.5L525.5 656H527.5L528 657L529.5 656.5L530 658.5L532.5 656L532 658.5L533.5 659L534.5 660L536.5 658.5V661L538 660.5L538.5 662.5L541.5 660.5L541 662.5H543L543.5 664L545 663.5L545.5 665L547.5 664.5L548 666.5L549.5 665L550 667H552.5V668.5L554 667.5L555 669L556 668.5L556.5 670L558 669.5L559 671L561 670V672L562.5 670.5V673L564.5 672.5L565 673.5L566.5 673L567 675L568.5 674.5L569 675.5L570.5 675L571 676.5L573.5 675.5L574 677.5L575.5 674.5V678.5L576.5 677L578 679L579 678L579.5 680L580.5 679V680.5L583 678.5V681H585V682.5L587.5 681.5V682.5L589.5 682L590 684L591.5 683.5L592 685L593 684L594 685.5L596.5 683L596 686L598 685V686.5L599.5 686L600.5 688L601.5 687.5L602 689L603 687.5L604 689H606L606.5 690L608.5 689L609.5 690.5H611L611.5 691.5L614 692L614.5 693L616.5 692.5L617 693.5L619 692.5V694L621 693.5L621.5 695.5L623.5 694.5L624.5 696L626 695.5L627 697L628 696L628.5 697L629.5 696.5L630 697.5L631.5 696.5L632 698L633.5 697V699L635 698.5L635.5 699.5L637.5 699L638 700.5L639.188 698V700.5H641.5L642.5 701.5L644 700.5V701.688L646.5 700.5L647 702.5L648.5 701L649 703L650.5 702.5L651.5 703.5L653.5 702V704L654.5 703.5L655.5 705L657.5 703L659 706.5L661 704V706L663 705L664 706L665 705.5L665.5 706.5L667.5 705.5L668 707.5L669.5 705.5L670.5 707L671.5 706L672.5 707.5L674 707L675.5 709L677 707.5L678 709L680 706.5L680.5 708.5H683.5L684 709.5L686 709L687 710L688 709L688.5 710.5L690 709.5L691 711L692.5 709.5L693.5 710.5L694.5 709.5L695.5 710L696.5 709.5L697.5 711L699 710L699.5 711L702 710L702.5 710.5L704 710L704.5 710.5L706 710L707 711L709 710L711 711L712 710L713.5 710.5L714.5 710L716 711L716.5 708L717.5 710.5L719 709.5L719.5 710.5L721 709L721.5 710L723.5 709L724.312 709.5L726 709L727 710L729 708.5L730 710L731 708L732.5 709.5L734 707.5L735.188 709L737 708L738.5 709L740 707.5L740.5 708.5L742.5 707.5L743.5 708.5L745 707.5L746 708L747 706.5L748 707.5L748.5 706.5L750 708L750.5 706.5L752 707.5L753 705.5L754 707L755 705.5L756 706L757 705L759.5 706L760.5 704.5L762 705.5L763.5 704L764.5 705L765.5 704L766.75 704.5L767 703.5L769 704.5L768.5 702.5L770 704.5L771 703L773 704L774 702.5L774.5 703.5L776 702.5L777.5 703L778 702L779 703L780 701L781.5 702.5L782 701L783 702L784 700.5L785.5 701.5L786 700L787.5 701.5L789.5 700L791 700.5L792 699.5L793.5 700L795 698.5L796.5 699.5L797.5 698L799.5 699L800 697.5L803 698.5L804 697L804.5 698L806 696.5L806.5 697.5L808 696.5L809 697L810.5 696L811.5 696.5L813 695L814.5 696L815 695L817 696L818.5 694L820 695.5L820.5 694.5L821.5 695L823 694L824 695L825 693.5H826.5L827.5 693L829.5 693.5L831.5 692.5L832.75 693L833.5 692.5L835 693L837.5 691L839.5 692L840.5 690.5L841.5 692L843.5 690L845 691L846 689L847 691L849 689.5L850 690L851 689L853 690L855 688.5L856.5 689.5L858.5 688L859.5 689.5L861 688L863 689L864.5 687.5L865.5 688L867 687.5L868.5 688L870.5 686.5L872 687.5L874 686.5L875 687L876.5 685.5L877.75 687.5L879 685.5L880.5 687L883 685.5L883.5 687L885.5 686L887 687.5L889 684L890.5 687L891.688 685.5L892.5 687L894.5 685.5L895.5 687L896.25 685.5L897.5 687L899.5 685.5L900.5 687L903 685.5L904.5 687L906 686L907 687L910 686L911 687.5L912 686.5L913 688.5L915 686.5L916 687.5L918 687L919 688.5L920.5 687.5L923 689.5L924.5 688L925 689.5L926.5 688.5L927.5 690.5L928.5 689.5L930 690.5L931 690L932.5 692L934.5 691L935 693L936 692L936.5 693L938 692L938.5 694L940.5 693L941 694.5L942.5 694V696L945 695L945.5 696H946.5L947.5 697.5L949.5 696.5L950.5 698.5L952 698L953.5 700.5L955 699.5L956 701L957.5 700L958 701.5L959.5 701L960 703L961.5 702.5L962.5 703.5L964 703L964.5 704.5H967V706L968 705.5L969 706.5L969.5 706L970.5 707.5L972 706L972.5 708H974L974.5 709H976L976.5 710H979L979.5 711H980.5V712H982.5L983 713L983.5 712.5L984.5 714L985.812 713L987 715H988L989 716L990 715.5L991.5 717.5L993.5 716.5L994 718.5L995 718L996.5 719.5H997.5L998.5 720.5L1000 719.5V721.5L1001.5 720.5V722.5L1003.5 721.5V723L1005 721.5V723H1006.5L1007.5 724.5L1009 724V725.5H1011L1012.5 726.5L1014 725.5V728L1016 726.5L1017.5 728.5L1018.5 728V730L1020.5 729.5L1021 730.5L1022.5 730L1023.5 731H1026L1027.5 733H1028.5L1029.5 734.5L1032.5 733.5V736L1035 734.5V737L1037.5 735.5L1038.5 737H1041L1041.5 738.5H1044L1045 740L1047 738.5V741L1049.5 740L1050.5 741L1051.5 740V742.5H1054L1055 744L1057.5 742.5L1058.5 745L1061.5 744L1062.5 746L1064 745L1066 747L1067.5 745L1069.5 749L1072 747L1073 749.5L1075.5 749L1077 750.5L1080.5 749L1082.5 752L1085 750.5L1086 753L1086.5 751.5L1088.5 753H1090L1091 753.5L1092.5 753L1094 754.5L1094.5 754L1095.5 755.5L1097.5 754.5V755.5L1099 754.5L1100.5 755.5H1101.5L1103.5 757.5L1105.5 755.5L1106.5 757.5L1108.5 756.5L1109.5 757.5L1111 756.5L1112 758.5L1114.5 757.5V758.5H1116L1117 759.5L1119 758.5L1120 759.5L1121 758.5L1122 761L1124 759.5L1125 761.5L1126 759.5L1128 761L1129 760.5L1132 762.5L1134 761L1135.5 762.5L1137.5 761.5L1140.5 763.5L1143 762.5L1145 763.5H1147L1148.5 764.5L1150.5 763.5V765.5L1153 763.5L1154.5 765.5L1156.5 764.5L1157.5 765.5L1158.5 764.5L1161 765.5L1161.5 766.5L1163 764.5V766.5L1166 764.5L1167.5 766.5L1168.5 765.5L1170 768L1171.5 766.5L1173 768L1175 766.5L1176.5 768.5L1178.5 766.5L1181 768.5L1183 768V769.5L1184.5 768L1188.5 769.5L1189.5 768.5L1192 770L1193.5 768.5L1195 770L1196 769.5L1198 771L1200 769.5L1201 771L1203 769.5L1204 771L1205 770L1206.5 771.5L1208 771L1209 771.5L1211.5 770L1213 772.5L1215 771L1216 772.5L1217.5 771.5L1219.5 773.5L1223 772.5L1224 773.5L1226 772.5L1228.5 775L1229.5 773.5L1231 775L1232 773.5L1234.5 775.5L1237 774.5L1238 776.5L1241 775L1243 777.5L1244 775.5L1245 777.5L1249 776.5L1252 778.5L1253 776.5L1255 778.5H1256.5L1258.5 779.5L1260.5 778.5L1262 781L1264 779.5L1265 781.5L1269 781L1270 783L1272.5 782V783H1275V784.5L1277.5 783L1278 785L1280 784.5V787L1283 785L1283.5 787.5H1285.5V789H1288V790L1291 789V791H1293L1298 981L-154 961L-149 698Z" fill="#B5E89C"/>
<path d="M-24.9958 632.814C-53.4242 650.619 -119.08 679.091 -158 691.102V973H1302V797.078C1272.89 778.003 1255.3 777.155 1157.83 765.285C1035.99 750.449 989.288 710.178 932.431 691.102C875.574 672.026 767.953 714.417 692.821 710.178C632.715 706.786 540.526 664.254 501.944 643.412C446.78 628.929 331.577 596.782 312.083 584.065C287.716 568.169 225.783 584.065 190.248 584.065H93.7942C66.0427 592.897 3.43256 615.01 -24.9958 632.814Z" fill="#B5E89C"/>
</g>
<path id="Vector 52" d="M683 723C713 740.679 724.816 777.708 806 753C852 739 918 753 969 779C1015.76 802.838 1312 927 1402 943C1324 935 1046.8 820.6 946 779C820 727 770.729 825.445 730 779C673 714 610 705 518 667C487.765 654.512 323.517 642.025 247.418 646.27C217.912 651.685 202.64 655.185 214 651C220.365 648.655 232.107 647.124 247.418 646.27C316.615 633.57 464.1 610.339 530 651C605.2 697.4 627 690 683 723Z" fill="#9ED285"/>
<g id="Vector_3">
<path d="M-423 740L-418 723V729.5L-415.5 726.5L-413.5 728.5V725L-411.5 727.5L-409.5 724.5L-408 726.5L-407 724L-405.688 724.5L-404.5 722.5L-403 724L-402.5 722.5L-400.5 724L-399 720.5L-398 721.5L-396.5 719L-394.5 721C-394.333 720.667 -394 719.3 -394 716.5C-394 715.478 -394.044 714.824 -394.109 714.423C-394.264 714.245 -394.401 714.099 -394.5 714C-394.394 713.788 -394.221 713.725 -394.109 714.423C-393.743 714.843 -393.281 715.438 -393 716C-392.6 716.8 -392.167 718.667 -392 719.5L-391.5 717L-390.5 719.5L-388.5 716L-387.5 717.5L-386.5 715.5L-385.5 716.5L-384.5 715.5H-383L-382 714.5H-381L-380 712.5L-379.5 714L-378 712.5L-377 713L-376 712H-374.5L-374 711L-373 711.5L-372.5 709.5L-371.5 710.5L-370.5 709.5L-370 710L-369 709H-368L-366.5 707.5L-365 708V706L-364 707.5L-363.5 706.5H-362L-361.5 705.5L-360 706L-359 704.5H-357L-356 703.5L-355 704L-355.5 702L-353.5 703L-352.5 701.5L-351.5 702V700.5L-350 701.5L-349 700.5H-348L-347.5 699L-346 700L-345.5 697.5L-343 698L-342.5 697.5H-341L-340.5 696.5L-338.5 696L-337.5 694.5H-336L-334.5 693.5H-333V691L-331.5 692.5L-331 691L-329.5 692L-328.5 690L-327 690.5L-325.5 689H-325L-323.5 688H-322.5V686.5L-321.5 687.5L-320.5 686L-319.5 686.5L-318 685.5H-316.188L-315.5 683.5L-314.5 684L-314 681L-312 683L-311.5 682H-310.5L-310 681H-309L-308.5 679.5L-307.5 680L-306.5 678.5L-305.5 679L-304.5 677.5L-303.5 678L-303 675.5L-302 676.5L-301 674.5L-300 675.5L-298.5 673.5L-297.5 674.5L-297 673H-294.5L-294 671.5H-293.5L-292.5 670L-291 671L-290.5 670H-289.5L-288.5 668.5H-287.312L-287 667.5H-285.5L-284.5 666.5H-283L-282.5 665H-280.75L-279.5 664H-278L-276.5 662.5H-275.5V660.5L-274 662L-273.5 661L-272 661.5L-271 660H-270L-269.5 658.5L-268 659.5L-267 658H-265.5L-264.5 656.5L-263.5 657.5L-262.5 656L-261.5 656.5L-261 653.5L-260 656L-259 654.5L-257.5 655L-257 653.5L-255.5 654L-255 652.5L-254 653.5L-253.5 651.5L-252 652.5L-250.5 650L-249 651.5L-249.5 649L-248 650.5L-247 649.5L-246 650V649H-244.5L-245.5 646.5L-242.25 649V647L-240.5 648L-239.5 646.5L-238.5 647.5L-237.5 645.5L-236.5 646L-235.5 644.5L-234 645.5L-233 644L-231.5 644.5L-230.5 643L-229 643.5L-228 641.5L-226.5 642.5V639.5L-225 642L-224 641L-223 641.5L-222 639L-221 640L-220.5 638.5H-219L-218 637L-216.5 638L-216 637L-214 637.5L-212.5 636.5H-211L-210.5 636H-209.5L-209 634L-208 635L-207 634L-205.5 635L-205 633.5L-204 634L-203.5 633.5L-202.5 634L-201.5 632.5L-200.5 633L-199.5 632H-198L-197.5 630.5L-197 631.5L-195.688 630.5L-194.5 631L-193.5 629L-192.5 630L-191 628.5L-190 629.5L-189 628L-187.5 629L-187 627.5L-186 628L-185 627L-184 627.5L-183 626L-182 627L-181.5 625.5L-180.5 626L-178 625.5L-177.5 626L-177 625L-176 627L-175 626L-173.5 627L-172.5 625L-171.5 626L-170 625L-169.5 626L-168.5 625L-167.5 626L-166 625.5L-164.5 626L-163.5 625L-163 626L-161.5 624.5L-161 626L-160 625L-159 626L-158 625L-157 626.5L-156 625.5L-155 626L-153.5 625.5L-152.5 626H-151.5L-150.5 626.5V625.5L-149 626.5L-148.5 625.5L-147.5 626L-146.5 625.5L-145.5 626.5L-144.5 625.5L-144 626H-143.5L-142.5 626.5L-141.5 625.5L-141 626.5L-140.5 625.5L-139.5 626.5L-138 625L-137 626L-136 625.5L-134.5 626.5L-133.5 625.5L-132.5 626L-131.5 625L-130.5 626L-129 625.5L-127.5 626L-126.688 625L-126 626.5L-125 625.5L-123.5 626L-123 625.5L-122 626.5L-121 625L-120.5 626L-119 625L-118.5 626.5L-117.5 625L-116.5 626L-115.5 625.5L-114.5 626.5L-113.5 625L-113 626.5L-112 625.5L-111 626L-110 625L-109 626L-108 625.5L-107.5 626.5L-106.5 625.5L-106 626L-105 625.5L-104 626L-103 625.5L-102.5 626.5L-102 624L-101.5 626L-101 623L-100.5 626.5L-99 625.5L-98 626L-96.5 625.5L-95.5 626.5L-94.5 626L-93 626.5L-92 625.5L-91.5 626L-90.5 624.5L-90 626L-89.5 625L-89 626L-88 625.5L-87.5 626L-86 625L-85 626.5L-84 625.5L-83.5 626L-82.5 625L-82 626.5L-81 625L-80 626L-79.5 625L-78.5 626L-77.5 625L-77 626L-75.5 625.5L-74.5 626.5L-73.5 625L-72 626L-71.5 625L-70 625.5L-69 624.5L-68 625V623L-66.5 625L-66 624.5L-65 625.5L-64.5 624.5L-63.5 625L-62.5 624.5H-62L-61 623.5L-60.5 624.5L-59 623.5L-58 624.5V623L-57 624.5L-56 623L-55 624.5L-54 623L-53 624.5L-51.5 623L-51 624L-50 623L-49 623.5L-48.5 623L-47.5 623.5L-46.5 622.5L-46 623L-45 621L-44.5 623L-43.5 622L-42 622.5L-41.5 621L-40.5 622.5L-39.5 621.5L-38 622L-37 621L-36.5 622L-35 620.5L-34 621.5L-33 621L-31.5 621.5L-30.5 620.5L-29.5 621.5L-29 619.5L-28 621L-27.5 619.5L-26 621L-24.5 620L-24 621L-23 620L-22 620.5L-20.5 620L-20 620.5L-19 619.5L-18.3125 620L-17.5 619L-17 620L-15.5 619L-14.5 620L-13.5 619.5L-12.75 620L-11.6875 619L-11 620L-10 619L-9.5 619.5L-8 619L-7 619.5L-6 618.5L-5 619.5L-3.5 618.5L-3 619.5L-1.5 617V619L1 617V619.5L2.5 618.5L4.5 620L6 618V619L8.5 618.5L9.5 620L10.5 618.5L11.5 620L13 618V619L15 618.5L15.5 620L17 619.5L17.5 620.5L19.5 620L21 620.5L22 619.5L23 621L24.5 620.5L25 622L26.75 621L27.5 622H29.5L30.5 623L32 622.5L32.5 624L34 623V624.5L36.5 622.5L36 625H37.5L38 626.5L39 626L40.5 627.5H42L42.5 629.5L44 628.5L44.5 630L46.5 629.5L46 630.5L48.25 629.5V632L50 631.5L50.5 632.5L52.5 631.5L53 633.5L55 633L55.5 635L57 634.5L58.5 635.5L61 634.5L61.5 636.5H62.5L63.5 637.5L65.5 637L66.5 638.5L68 638L68.5 639.5L70.5 638.5L71 640L72.5 639.5L74 642.5L77 639.5L76.5 642.5L79.5 641V643.5L82.5 642.5V644L84.5 643.5L86 646L87.5 645L88.5 646L90.5 645.5L91.5 647.5L93.5 646L94.5 648.5L97 647.5L97.5 649L99 648V649L102 648.5L102.5 650.5L104.5 649.5L105 651.5L107.5 650.5L108.5 651.5H109.5L110.5 653L111.5 652.5L113 653.5L115 653L115.5 654.5L117.5 653.5V655L120 653.5L120.5 656H123L124.5 657L125.5 656L126 657H128L128.5 658L129.5 657L130 658.5L133.5 657.5L134 659.5H136.5L138 661H139L139.5 661.5L140.5 660L142 662H143.5L144 663L145.5 661.5L146.5 663L148 662.5L149 664L150 663.5L151 664.5L152 664L153.5 665H155L156 666L156.5 663.5L157.5 666L161.25 665L161 667H163L164 668.5L167 667.5L167.5 669L170 668.5L170.5 670L173.5 669L174 671L175.5 670.5L176.5 671.5L178.5 671L179 672.5L181.5 670.5V673L184 672.5L184.5 674L187 673.5V675L189.5 673.5L190 675L192.5 674.5V676.5L195.5 676L196 677L197 676.5L198 677.5L199.5 677L200 678L202.5 676L202 678.5L203.5 678L204.5 679.5L205.5 678.5L207 680L208.5 679.5L209.5 680.5L211 680V681L213 680L214 682L216 681L216.5 682L218.5 681L218 683L220.5 682.5L221 684L223 683V684L225.5 684.5L226 685.5L227.5 685L229 686.5L230.5 686V687L232 686V687.5L233.5 688L234 689H235.5L236 690H237L237.5 691L239.5 689.5V691.5H241.5L242 692.5L243.5 692V694L246 693V695H247.5L248 696L249.5 693.5V696.5L252.5 694.5L251.5 698H253.5L254 699L255.5 698.5L256 700.5L258.5 698L258 700.5L259.5 701L260.5 702L262.5 700.5V703L264 702.5L264.5 704.5L267.5 702.5L267 704.5H269L269.5 706L271 705.5L271.5 707L273.5 706.5L274 708.5L275.5 707L276 709H278.5V710.5L280 709.5L281 711L282 710.5L282.5 712L284 711.5L285 713L287 712V714L288.5 712.5V715L290.5 714.5L291 715.5L292.5 715L293 717L294.5 716.5L295 717.5L296.5 717L297 718.5L299.5 717.5L300 719.5L301.5 716.5V720.5L302.5 719L304 721L305 720L305.5 722L306.5 721V722.5L309 720.5V723H311V724.5L313.5 723.5V724.5L315.5 724L316 726L317.5 725.5L318 727L319 726L320 727.5L322.5 725L322 728L324 727V728.5L325.5 728L326.5 730L327.5 729.5L328 731L329 729.5L330 731H332L332.5 732L334.5 731L335.5 732.5H337L337.5 733.5L340 734L340.5 735L342.5 734.5L343 735.5L345 734.5V736L347 735.5L347.5 737.5L349.5 736.5L350.5 738L352 737.5L353 739L354 738L354.5 739L355.5 738.5L356 739.5L357.5 738.5L358 740L359.5 739V741L361 740.5L361.5 741.5L363.5 741L364 742.5L365.188 740V742.5H367.5L368.5 743.5L370 742.5V743.688L372.5 742.5L373 744.5L374.5 743L375 745L376.5 744.5L377.5 745.5L379.5 744V746L380.5 745.5L381.5 747L383.5 745L385 748.5L387 746V748L389 747L390 748L391 747.5L391.5 748.5L393.5 747.5L394 749.5L395.5 747.5L396.5 749L397.5 748L398.5 749.5L400 749L401.5 751L403 749.5L404 751L406 748.5L406.5 750.5H409.5L410 751.5L412 751L413 752L414 751L414.5 752.5L416 751.5L417 753L418.5 751.5L419.5 752.5L420.5 751.5L421.5 752L422.5 751.5L423.5 753L425 752L425.5 753L428 752L428.5 752.5L430 752L430.5 752.5L432 752L433 753L435 752L437 753L438 752L439.5 752.5L440.5 752L442 753L442.5 750L443.5 752.5L445 751.5L445.5 752.5L447 751L447.5 752L449.5 751L450.312 751.5L452 751L453 752L455 750.5L456 752L457 750L458.5 751.5L460 749.5L461.188 751L463 750L464.5 751L466 749.5L466.5 750.5L468.5 749.5L469.5 750.5L471 749.5L472 750L473 748.5L474 749.5L474.5 748.5L476 750L476.5 748.5L478 749.5L479 747.5L480 749L481 747.5L482 748L483 747L485.5 748L486.5 746.5L488 747.5L489.5 746L490.5 747L491.5 746L492.75 746.5L493 745.5L495 746.5L494.5 744.5L496 746.5L497 745L499 746L500 744.5L500.5 745.5L502 744.5L503.5 745L504 744L505 745L506 743L507.5 744.5L508 743L509 744L510 742.5L511.5 743.5L512 742L513.5 743.5L515.5 742L517 742.5L518 741.5L519.5 742L521 740.5L522.5 741.5L523.5 740L525.5 741L526 739.5L529 740.5L530 739L530.5 740L532 738.5L532.5 739.5L534 738.5L535 739L536.5 738L537.5 738.5L539 737L540.5 738L541 737L543 738L544.5 736L546 737.5L546.5 736.5L547.5 737L549 736L550 737L551 735.5H552.5L553.5 735L555.5 735.5L557.5 734.5L558.75 735L559.5 734.5L561 735L563.5 733L565.5 734L566.5 732.5L567.5 734L569.5 732L571 733L572 731L573 733L575 731.5L576 732L577 731L579 732L581 730.5L582.5 731.5L584.5 730L585.5 731.5L587 730L589 731L590.5 729.5L591.5 730L593 729.5L594.5 730L596.5 728.5L598 729.5L600 728.5L601 729L602.5 727.5L603.75 729.5L605 727.5L606.5 729L609 727.5L609.5 729L611.5 728L613 729.5L615 726L616.5 729L617.688 727.5L618.5 729L620.5 727.5L621.5 729L622.25 727.5L623.5 729L625.5 727.5L626.5 729L629 727.5L630.5 729L632 728L633 729L636 728L637 729.5L638 728.5L639 730.5L641 728.5L642 729.5L644 729L645 730.5L646.5 729.5L649 731.5L650.5 730L651 731.5L652.5 730.5L653.5 732.5L654.5 731.5L656 732.5L657 732L658.5 734L660.5 733L661 735L662 734L662.5 735L664 734L664.5 736L666.5 735L667 736.5L668.5 736V738L671 737L671.5 738H672.5L673.5 739.5L675.5 738.5L676.5 740.5L678 740L679.5 742.5L681 741.5L682 743L683.5 742L684 743.5L685.5 743L686 745L687.5 744.5L688.5 745.5L690 745L690.5 746.5H693V748L694 747.5L695 748.5L695.5 748L696.5 749.5L698 748L698.5 750H700L700.5 751H702L702.5 752H705L705.5 753H706.5V754H708.5L709 755L709.5 754.5L710.5 756L711.812 755L713 757H714L715 758L716 757.5L717.5 759.5L719.5 758.5L720 760.5L721 760L722.5 761.5H723.5L724.5 762.5L726 761.5V763.5L727.5 762.5V764.5L729.5 763.5V765L731 763.5V765H732.5L733.5 766.5L735 766V767.5H737L738.5 768.5L740 767.5V770L742 768.5L743.5 770.5L744.5 770V772L746.5 771.5L747 772.5L748.5 772L749.5 773H752L753.5 775H754.5L755.5 776.5L758.5 775.5V778L761 776.5V779L763.5 777.5L764.5 779H767L767.5 780.5H770L771 782L773 780.5V783L775.5 782L776.5 783L777.5 782V784.5H780L781 786L783.5 784.5L784.5 787L787.5 786L788.5 788L790 787L792 789L793.5 787L795.5 791L798 789L799 791.5L801.5 791L803 792.5L806.5 791L808.5 794L811 792.5L812 795L812.5 793.5L814.5 795H816L817 795.5L818.5 795L820 796.5L820.5 796L821.5 797.5L823.5 796.5V797.5L825 796.5L826.5 797.5H827.5L829.5 799.5L831.5 797.5L832.5 799.5L834.5 798.5L835.5 799.5L837 798.5L838 800.5L840.5 799.5V800.5H842L843 801.5L845 800.5L846 801.5L847 800.5L848 803L850 801.5L851 803.5L852 801.5L854 803L855 802.5L858 804.5L860 803L861.5 804.5L863.5 803.5L866.5 805.5L869 804.5L871 805.5H873L874.5 806.5L876.5 805.5V807.5L879 805.5L880.5 807.5L882.5 806.5L883.5 807.5L884.5 806.5L887 807.5L887.5 808.5L889 806.5V808.5L892 806.5L893.5 808.5L894.5 807.5L896 810L897.5 808.5L899 810L901 808.5L902.5 810.5L904.5 808.5L907 810.5L909 810V811.5L910.5 810L914.5 811.5L915.5 810.5L918 812L919.5 810.5L921 812L922 811.5L924 813L926 811.5L927 813L929 811.5L930 813L931 812L932.5 813.5L934 813L935 813.5L937.5 812L939 814.5L941 813L942 814.5L943.5 813.5L945.5 815.5L949 814.5L950 815.5L952 814.5L954.5 817L955.5 815.5L957 817L958 815.5L960.5 817.5L963 816.5L964 818.5L967 817L969 819.5L970 817.5L971 819.5L975 818.5L978 820.5L979 818.5L981 820.5H982.5L984.5 821.5L986.5 820.5L988 823L990 821.5L991 823.5L995 823L996 825L998.5 824V825H1001V826.5L1003.5 825L1004 827L1006 826.5V829L1009 827L1009.5 829.5H1011.5V831H1014V832L1017 831V833H1019L1024 1023L-428 1003L-423 740Z" fill="#9CD183"/>
<path d="M-298.996 674.814C-327.424 692.619 -393.08 721.091 -432 733.102V1015H1028V839.078C998.895 820.003 981.296 819.155 883.828 807.285C761.992 792.449 715.288 752.178 658.431 733.102C601.574 714.026 493.953 756.417 418.821 752.178C358.715 748.786 266.526 706.254 227.944 685.412C172.78 670.929 57.5772 638.782 38.0835 626.065C13.7163 610.169 -48.2169 626.065 -83.7524 626.065H-180.206C-207.957 634.897 -270.567 657.01 -298.996 674.814Z" fill="#9CD183"/>
</g>
</g>
</g>
<defs>
<clipPath id="clip0">
<rect width="1366" height="768" fill="white"/>
</clipPath>
</defs>
</svg>
